<?xml version="1.0" encoding="utf-8"?>
<!-- Generator: Adobe Illustrator 23.0.1, SVG Export Plug-In . SVG Version: 6.00 Build 0)  -->
<svg version="1.1" id="Layer_1" xmlns="http://www.w3.org/2000/svg" xmlns:xlink="http://www.w3.org/1999/xlink" x="0px" y="0px"
	 viewBox="0 0 715.1 2274.6" style="enable-background:new 0 0 715.1 2274.6;" xml:space="preserve">
<style type="text/css">
	.st0{opacity:0.2;}
	.st1{fill:#FFFFFF;}
	.st2{stroke:#FFFFFF;stroke-width:0.72;stroke-miterlimit:10;}
	.st3{stroke:#000000;stroke-miterlimit:10;}
	.st4{fill:none;stroke:#FFFFFF;stroke-miterlimit:10;}
	.st5{stroke:#FFFFFF;stroke-width:1.8;stroke-miterlimit:10;}
	.st6{fill:none;stroke:#FFFFFF;stroke-width:1.8;stroke-miterlimit:10;}
</style>
<title>appliance-bg</title>
<g class="st0">
	<path d="M184.3,291.5h73c2.1,0,3.9,1.7,3.9,3.9v86.5c0,2.1-1.7,3.9-3.9,3.9h-73c-2.1,0-3.9-1.7-3.9-3.9v-86.5
		C180.4,293.2,182.1,291.5,184.3,291.5z"/>
	<circle class="st1" cx="220.8" cy="348.8" r="27"/>
	<circle class="st1" cx="220.8" cy="303.2" r="4.9"/>
	<rect x="231.7" y="298.5" class="st1" width="24.6" height="9.5"/>
	<circle cx="220.8" cy="348.8" r="18.4"/>
	<rect x="186.6" y="298.5" class="st1" width="24.6" height="9.5"/>
	<path class="st2" d="M180.4,316.3c26.8-4,54-4,80.7,0"/>
</g>
<g class="st0">
	<path class="st3" d="M181.8,192.5h77.9c0.8,0,1.4,0.6,1.4,1.4v91.5c0,0.8-0.6,1.4-1.4,1.4h-77.9c-0.8,0-1.4-0.6-1.4-1.4v-91.5
		C180.4,193.1,181,192.5,181.8,192.5z"/>
	<line class="st4" x1="180.4" y1="214.4" x2="261.1" y2="214.4"/>
	<line class="st4" x1="180.4" y1="268.3" x2="261.1" y2="268.3"/>
	<rect x="208.5" y="198.5" class="st1" width="24.6" height="9.5"/>
	<circle class="st1" cx="200.3" cy="203.3" r="3.7"/>
	<circle class="st1" cx="188.8" cy="203.3" r="3.7"/>
	<circle class="st1" cx="252.3" cy="203.3" r="3.7"/>
	<circle class="st1" cx="240.8" cy="203.3" r="3.7"/>
	<path class="st4" d="M194.8,221.6h54.1c2.2,0,3.9,1.8,3.9,3.9v31.5c0,2.2-1.8,3.9-3.9,3.9h-54.1c-2.2,0-3.9-1.8-3.9-3.9v-31.5
		C190.9,223.4,192.6,221.6,194.8,221.6z"/>
</g>
<g class="st0">
	<path d="M185-60.9h73c2.1,0,3.9,1.7,3.9,3.8v86.5c0,2.1-1.7,3.9-3.9,3.9h-73c-2.1,0-3.9-1.7-3.9-3.9v-86.5
		C181.1-59.2,182.9-60.9,185-60.9z"/>
	<circle class="st1" cx="221.5" cy="-3.6" r="27"/>
	<circle class="st1" cx="221.5" cy="-49.2" r="4.9"/>
	<rect x="232.4" y="-53.9" class="st1" width="24.6" height="9.5"/>
	<circle cx="221.5" cy="-3.6" r="18.4"/>
	<path class="st2" d="M181.1-36.1c26.8-4,54-4,80.7,0"/>
</g>
<g class="st0">
	<path class="st3" d="M185,40.2h73c2.1,0,3.9,1.7,3.9,3.9v139.8c0,2.1-1.7,3.9-3.9,3.9h-73c-2.1,0-3.9-1.7-3.9-3.9V44.1
		C181.2,41.9,182.9,40.2,185,40.2z"/>
	<path class="st5" d="M184.1,160.2c24.4-4.4,49.4-4.4,73.8,0"/>
	<line class="st6" x1="217.6" y1="130.3" x2="217.6" y2="68.8"/>
	<line class="st6" x1="225.4" y1="130.3" x2="225.4" y2="68.8"/>
	<ellipse class="st1" cx="191.1" cy="47.9" rx="3.7" ry="1.7"/>
	<line class="st4" x1="180.1" y1="150.8" x2="262.8" y2="150.8"/>
	<line class="st4" x1="221.5" y1="150.1" x2="221.5" y2="39.3"/>
</g>
<g class="st0">
	<path class="st3" d="M182.1,744.4H260c0.8,0,1.4,0.6,1.4,1.4v91.5c0,0.8-0.6,1.4-1.4,1.4h-77.9c-0.8,0-1.4-0.6-1.4-1.4v-91.5
		C180.7,745,181.3,744.4,182.1,744.4z"/>
	<line class="st4" x1="180.7" y1="766.3" x2="261.4" y2="766.3"/>
	<line class="st4" x1="180.7" y1="820.2" x2="261.4" y2="820.2"/>
	<rect x="208.7" y="750.5" class="st1" width="24.6" height="9.5"/>
	<circle class="st1" cx="200.5" cy="755.2" r="3.7"/>
	<circle class="st1" cx="189.1" cy="755.2" r="3.7"/>
	
		<ellipse transform="matrix(0.1602 -0.9871 0.9871 0.1602 -533.347 883.5656)" class="st1" cx="252.6" cy="755.2" rx="3.7" ry="3.7"/>
	<circle class="st1" cx="241.1" cy="755.2" r="3.7"/>
	<path class="st4" d="M195,773.5h54.1c2.2,0,3.9,1.8,3.9,3.9V809c0,2.2-1.8,3.9-3.9,3.9H195c-2.2,0-3.9-1.8-3.9-3.9v-31.5
		C191.1,775.3,192.9,773.5,195,773.5z"/>
</g>
<g class="st0">
	<path d="M185.2,491h73c2.1,0,3.9,1.7,3.9,3.8v86.5c0,2.1-1.7,3.8-3.9,3.8h-73c-2.1,0-3.9-1.7-3.9-3.8v-86.5
		C181.4,492.7,183.1,491,185.2,491z"/>
	<circle class="st1" cx="221.8" cy="548.4" r="27"/>
	<circle class="st1" cx="221.8" cy="502.7" r="4.9"/>
	<rect x="232.7" y="498" class="st1" width="24.6" height="9.5"/>
	<circle cx="221.8" cy="548.4" r="18.4"/>
	<path class="st2" d="M181.4,515.9c26.8-4,54-4,80.7,0"/>
</g>
<g class="st0">
	<path class="st3" d="M185.3,592.1h73c2.1,0,3.9,1.7,3.9,3.8v139.8c0,2.1-1.7,3.8-3.9,3.8h-73c-2.1,0-3.9-1.7-3.9-3.8V596
		C181.4,593.9,183.2,592.1,185.3,592.1z"/>
	<path class="st5" d="M184.4,712.1c24.4-4.4,49.4-4.4,73.8,0"/>
	<line class="st6" x1="217.9" y1="682.2" x2="217.9" y2="620.8"/>
	<line class="st6" x1="225.7" y1="682.2" x2="225.7" y2="620.8"/>
	<ellipse class="st1" cx="191.3" cy="599.8" rx="3.7" ry="1.7"/>
	<line class="st4" x1="180.4" y1="702.8" x2="263.1" y2="702.8"/>
	<line class="st4" x1="221.8" y1="702" x2="221.8" y2="591.2"/>
</g>
<g class="st0">
	<rect x="181" y="390.7" width="80.7" height="84.3"/>
	<rect x="187.2" y="397.7" class="st1" width="68.9" height="9.5"/>
	<line class="st4" x1="181" y1="415.4" x2="261.7" y2="415.4"/>
	<rect x="182.4" y="475" width="77.8" height="10"/>
	<ellipse class="st1" cx="223.8" cy="465.7" rx="3.7" ry="1.7"/>
</g>
<g class="st0">
	<path d="M274.7,75.6h73c2.1,0,3.9,1.7,3.9,3.9V166c0,2.1-1.7,3.9-3.9,3.9h-73c-2.1,0-3.9-1.7-3.9-3.9V79.4
		C270.9,77.3,272.6,75.6,274.7,75.6z"/>
	<circle class="st1" cx="311.2" cy="132.9" r="27"/>
	<circle class="st1" cx="311.2" cy="87.3" r="4.9"/>
	<rect x="322.1" y="82.6" class="st1" width="24.6" height="9.5"/>
	<circle cx="311.2" cy="132.9" r="18.4"/>
	<rect x="277.1" y="82.6" class="st1" width="24.6" height="9.5"/>
	<path class="st2" d="M270.9,100.4c26.8-4,54-4,80.7,0"/>
</g>
<g class="st0">
	<path class="st3" d="M272.2-23.4h77.9c0.8,0,1.4,0.6,1.4,1.4v91.5c0,0.8-0.6,1.4-1.4,1.4h-77.9c-0.8,0-1.4-0.6-1.4-1.4V-22
		C270.9-22.8,271.5-23.4,272.2-23.4z"/>
	<line class="st4" x1="270.9" y1="-1.5" x2="351.6" y2="-1.5"/>
	<line class="st4" x1="270.9" y1="52.4" x2="351.6" y2="52.4"/>
	<rect x="298.9" y="-17.3" class="st1" width="24.6" height="9.5"/>
	<circle class="st1" cx="290.7" cy="-12.6" r="3.7"/>
	<circle class="st1" cx="279.3" cy="-12.6" r="3.7"/>
	<circle class="st1" cx="342.8" cy="-12.6" r="3.7"/>
	<circle class="st1" cx="331.3" cy="-12.6" r="3.7"/>
	<path class="st4" d="M285.2,5.8h54.1c2.2,0,3.9,1.8,3.9,3.9v31.5c0,2.2-1.8,3.9-3.9,3.9h-54.1c-2.2,0-3.9-1.8-3.9-3.9V9.7
		C281.3,7.5,283.1,5.8,285.2,5.8z"/>
</g>
<g class="st0">
	<path d="M275,627.5h73c2.1,0,3.9,1.7,3.9,3.8v86.5c0,2.1-1.7,3.8-3.9,3.8h-73c-2.1,0-3.9-1.7-3.9-3.8v-86.5
		C271.1,629.2,272.9,627.5,275,627.5z"/>
	<circle class="st1" cx="311.5" cy="684.9" r="27"/>
	<circle class="st1" cx="311.5" cy="639.2" r="4.9"/>
	<rect x="322.4" y="634.5" class="st1" width="24.6" height="9.5"/>
	<circle cx="311.5" cy="684.9" r="18.4"/>
	<rect x="277.3" y="634.5" class="st1" width="24.6" height="9.5"/>
	<path class="st2" d="M271.1,652.3c26.8-4,54-4,80.7,0"/>
</g>
<g class="st0">
	<path class="st3" d="M272.5,528.5h77.9c0.8,0,1.4,0.6,1.4,1.4v91.5c0,0.8-0.6,1.4-1.4,1.4h-77.9c-0.8,0-1.4-0.6-1.4-1.4v-91.5
		C271.1,529.1,271.7,528.5,272.5,528.5z"/>
	<line class="st4" x1="271.1" y1="550.4" x2="351.8" y2="550.4"/>
	<line class="st4" x1="271.1" y1="604.3" x2="351.8" y2="604.3"/>
	<rect x="299.2" y="534.6" class="st1" width="24.6" height="9.5"/>
	<circle class="st1" cx="291" cy="539.3" r="3.7"/>
	<circle class="st1" cx="279.5" cy="539.3" r="3.7"/>
	<circle class="st1" cx="343" cy="539.3" r="3.7"/>
	<circle class="st1" cx="331.6" cy="539.3" r="3.7"/>
	<path class="st4" d="M285.5,557.7h54.1c2.2,0,3.9,1.8,3.9,3.9v31.5c0,2.2-1.8,3.9-3.9,3.9h-54.1c-2.2,0-3.9-1.8-3.9-3.9v-31.5
		C281.6,559.4,283.3,557.7,285.5,557.7z"/>
</g>
<g class="st0">
	<path d="M275.7,275.1h73c2.1,0,3.9,1.7,3.9,3.9v86.5c0,2.1-1.7,3.9-3.9,3.9h-73c-2.1,0-3.9-1.7-3.9-3.9V279
		C271.9,276.9,273.6,275.1,275.7,275.1z"/>
	<circle class="st1" cx="312.2" cy="332.5" r="27"/>
	<circle class="st1" cx="312.2" cy="286.9" r="4.9"/>
	<rect x="323.1" y="282.1" class="st1" width="24.6" height="9.5"/>
	<circle cx="312.2" cy="332.5" r="18.4"/>
	<path class="st2" d="M271.9,300c26.8-4,54-4,80.7,0"/>
</g>
<g class="st0">
	<path class="st3" d="M275.7,376.3h73c2.1,0,3.9,1.7,3.9,3.9v139.8c0,2.1-1.7,3.8-3.9,3.8h-73c-2.1,0-3.9-1.7-3.9-3.8V380.1
		C271.9,378,273.6,376.3,275.7,376.3z"/>
	<path class="st5" d="M274.9,496.2c24.4-4.4,49.4-4.4,73.8,0"/>
	<line class="st6" x1="308.3" y1="466.3" x2="308.3" y2="404.9"/>
	<line class="st6" x1="316.2" y1="466.3" x2="316.2" y2="404.9"/>
	<ellipse class="st1" cx="281.8" cy="384" rx="3.7" ry="1.7"/>
	<line class="st4" x1="270.9" y1="486.9" x2="353.5" y2="486.9"/>
	<line class="st4" x1="312.2" y1="486.1" x2="312.2" y2="375.4"/>
</g>
<g class="st0">
	<rect x="271.4" y="174.8" width="80.7" height="84.3"/>
	<rect x="277.7" y="181.8" class="st1" width="68.9" height="9.5"/>
	<line class="st4" x1="271.4" y1="199.5" x2="352.2" y2="199.5"/>
	<rect x="272.9" y="259.1" width="77.8" height="10"/>
	<ellipse class="st1" cx="314.2" cy="249.8" rx="3.7" ry="1.7"/>
</g>
<g class="st0">
	<rect x="272.1" y="726.7" width="80.7" height="84.3"/>
	<rect x="278.4" y="733.7" class="st1" width="68.9" height="9.5"/>
	<line class="st4" x1="272.1" y1="751.5" x2="352.8" y2="751.5"/>
	<rect x="273.6" y="811" width="77.8" height="10"/>
	<ellipse class="st1" cx="314.9" cy="801.7" rx="3.7" ry="1.7"/>
</g>
<g class="st0">
	<path d="M4.3,189h73c2.1,0,3.8,1.7,3.8,3.9v86.5c0,2.1-1.7,3.9-3.8,3.9h-73c-2.1,0-3.8-1.7-3.8-3.9v-86.5
		C0.5,190.8,2.2,189,4.3,189z"/>
	<circle class="st1" cx="40.9" cy="246.4" r="27"/>
	<circle class="st1" cx="40.9" cy="200.8" r="4.9"/>
	<rect x="51.8" y="196" class="st1" width="24.6" height="9.5"/>
	<circle cx="40.9" cy="246.4" r="18.4"/>
	<rect x="6.7" y="196" class="st1" width="24.6" height="9.5"/>
	<path class="st2" d="M0.5,213.9c13.1-2,26.4-3,39.7-3c13.7,0,27.4,1,41,3"/>
</g>
<g class="st0">
	<path class="st3" d="M1.9,90.1h78c0.8,0,1.4,0.6,1.4,1.4v91.5c0,0.8-0.6,1.4-1.4,1.4h-78c-0.8,0-1.4-0.6-1.4-1.4V91.4
		C0.5,90.7,1.1,90.1,1.9,90.1z"/>
	<line class="st4" x1="0.5" y1="111.9" x2="81.2" y2="111.9"/>
	<line class="st4" x1="0.5" y1="165.8" x2="81.2" y2="165.8"/>
	<rect x="28.6" y="96.1" class="st1" width="24.6" height="9.5"/>
	<circle class="st1" cx="20.4" cy="100.9" r="3.7"/>
	<circle class="st1" cx="8.9" cy="100.9" r="3.7"/>
	<circle class="st1" cx="72.4" cy="100.9" r="3.7"/>
	<circle class="st1" cx="60.9" cy="100.9" r="3.7"/>
	<path class="st4" d="M14.9,119.2h54.1c2.2,0,3.9,1.8,3.9,3.9v31.5c0,2.2-1.8,3.9-3.9,3.9H14.9c-2.2,0-3.9-1.8-3.9-3.9v-31.5
		C10.9,121,12.7,119.2,14.9,119.2z"/>
</g>
<g class="st0">
	<path class="st3" d="M5.1-62.2h73c2.1,0,3.8,1.7,3.8,3.8V81.4c0,2.1-1.7,3.9-3.8,3.9h-73c-2.1,0-3.8-1.7-3.8-3.9V-58.4
		C1.3-60.5,3-62.2,5.1-62.2z"/>
	<path class="st5" d="M4.2,57.8c12-2.2,24.1-3.3,36.3-3.3c12.6,0,25.1,1.1,37.5,3.3"/>
	<line class="st6" x1="37.7" y1="27.9" x2="37.7" y2="-33.6"/>
	<line class="st6" x1="45.5" y1="27.9" x2="45.5" y2="-33.6"/>
	<ellipse class="st1" cx="11.2" cy="-54.5" rx="3.7" ry="1.7"/>
	<line class="st4" x1="0.2" y1="48.4" x2="82.9" y2="48.4"/>
	<line class="st4" x1="41.6" y1="47.6" x2="41.6" y2="-63.1"/>
</g>
<g class="st0">
	<path d="M4.6,741h73c2.1,0,3.8,1.7,3.8,3.8v86.5c0,2.1-1.7,3.8-3.8,3.8h-73c-2.1,0-3.8-1.7-3.8-3.8v-86.5
		C0.8,742.7,2.5,741,4.6,741z"/>
	
		<ellipse transform="matrix(1.850899e-02 -0.9998 0.9998 1.850899e-02 -757.8143 824.647)" class="st1" cx="41.1" cy="798.3" rx="27" ry="27"/>
	<circle class="st1" cx="41.1" cy="752.7" r="4.9"/>
	<rect x="52" y="747.9" class="st1" width="24.6" height="9.5"/>
	<circle cx="41.1" cy="798.3" r="18.4"/>
	<rect x="7" y="747.9" class="st1" width="24.6" height="9.5"/>
	<path class="st2" d="M0.7,765.8c13.1-2,26.4-3,39.7-3c13.7,0,27.4,1,41,3"/>
</g>
<g class="st0">
	<path class="st3" d="M2.1,642h78c0.8,0,1.4,0.6,1.4,1.4v91.5c0,0.8-0.6,1.4-1.4,1.4h-78c-0.8,0-1.4-0.6-1.4-1.4v-91.5
		C0.8,642.6,1.4,642,2.1,642z"/>
	<line class="st4" x1="0.8" y1="663.8" x2="81.5" y2="663.8"/>
	<line class="st4" x1="0.8" y1="717.8" x2="81.5" y2="717.8"/>
	<rect x="28.8" y="648" class="st1" width="24.6" height="9.5"/>
	<circle class="st1" cx="20.6" cy="652.8" r="3.7"/>
	<circle class="st1" cx="9.2" cy="652.8" r="3.7"/>
	<circle class="st1" cx="72.7" cy="652.8" r="3.7"/>
	<circle class="st1" cx="61.2" cy="652.8" r="3.7"/>
	<path class="st4" d="M15.1,671.1h54.1c2.2,0,3.9,1.8,3.9,3.9v31.5c0,2.2-1.8,3.9-3.9,3.9H15.1c-2.2,0-3.9-1.8-3.9-3.9V675
		C11.2,672.9,13,671.1,15.1,671.1z"/>
</g>
<g class="st0">
	<path d="M5.3,388.6h73c2.1,0,3.8,1.7,3.8,3.9V479c0,2.1-1.7,3.8-3.8,3.8h-73c-2.1,0-3.8-1.7-3.8-3.8v-86.5
		C1.5,390.3,3.2,388.6,5.3,388.6z"/>
	
		<ellipse transform="matrix(1.850899e-02 -0.9998 0.9998 1.850899e-02 -404.788 479.5091)" class="st1" cx="41.8" cy="445.9" rx="27" ry="27"/>
	<circle class="st1" cx="41.8" cy="400.3" r="4.9"/>
	<rect x="52.8" y="395.6" class="st1" width="24.6" height="9.5"/>
	<circle cx="41.8" cy="445.9" r="18.4"/>
	<path class="st2" d="M1.5,413.4c13.1-2,26.4-3,39.7-3c13.7,0,27.4,1,41,3"/>
</g>
<g class="st0">
	<path class="st3" d="M5.4,489.7h73c2.1,0,3.8,1.7,3.8,3.8v139.8c0,2.1-1.7,3.8-3.8,3.8h-73c-2.1,0-3.8-1.7-3.8-3.8V493.6
		C1.5,491.4,3.2,489.7,5.4,489.7z"/>
	<path class="st5" d="M4.5,609.7c24.4-4.4,49.4-4.4,73.8,0"/>
	<line class="st6" x1="38" y1="579.8" x2="38" y2="518.3"/>
	<line class="st6" x1="45.8" y1="579.8" x2="45.8" y2="518.3"/>
	<ellipse class="st1" cx="11.4" cy="497.4" rx="3.7" ry="1.7"/>
	<line class="st4" x1="0.5" y1="600.3" x2="83.2" y2="600.3"/>
	<line class="st4" x1="41.9" y1="599.5" x2="41.9" y2="488.8"/>
</g>
<g class="st0">
	<rect x="1.1" y="288.3" width="80.7" height="84.3"/>
	<rect x="7.3" y="295.3" class="st1" width="68.9" height="9.5"/>
	<line class="st4" x1="1.1" y1="313" x2="81.8" y2="313"/>
	<rect x="2.5" y="372.5" width="77.8" height="10"/>
	<ellipse class="st1" cx="43.8" cy="363.3" rx="3.7" ry="1.7"/>
</g>
<g class="st0">
	<path d="M93.6,435.5h73c2.1,0,3.9,1.7,3.9,3.8v86.5c0,2.1-1.7,3.8-3.9,3.8h-73c-2.1,0-3.8-1.7-3.8-3.8v-86.5
		C89.7,437.2,91.4,435.5,93.6,435.5z"/>
	
		<ellipse transform="matrix(3.327792e-02 -0.9994 0.9994 3.327792e-02 -366.8152 606.408)" class="st1" cx="130.1" cy="492.8" rx="27" ry="27"/>
	<circle class="st1" cx="130.1" cy="447.2" r="4.9"/>
	<rect x="141" y="442.5" class="st1" width="24.6" height="9.5"/>
	<circle cx="130.1" cy="492.8" r="18.4"/>
	<rect x="95.9" y="442.5" class="st1" width="24.6" height="9.5"/>
	<path class="st2" d="M89.7,460.3c26.8-4,54-4,80.7,0"/>
</g>
<g class="st0">
	<path class="st3" d="M91.1,336.5H169c0.8,0,1.4,0.6,1.4,1.4v91.5c0,0.8-0.6,1.4-1.4,1.4H91.1c-0.8,0-1.4-0.6-1.4-1.4v-91.5
		C89.7,337.1,90.3,336.5,91.1,336.5z"/>
	<line class="st4" x1="89.7" y1="358.4" x2="170.4" y2="358.4"/>
	<line class="st4" x1="89.7" y1="412.3" x2="170.4" y2="412.3"/>
	<rect x="117.8" y="342.5" class="st1" width="24.6" height="9.5"/>
	<circle class="st1" cx="109.6" cy="347.3" r="3.7"/>
	<circle class="st1" cx="98.1" cy="347.3" r="3.7"/>
	<circle class="st1" cx="161.6" cy="347.3" r="3.7"/>
	<circle class="st1" cx="150.1" cy="347.3" r="3.7"/>
	<path class="st4" d="M104.1,365.6h54.1c2.2,0,3.9,1.8,3.9,3.9v31.5c0,2.2-1.8,3.9-3.9,3.9h-54.1c-2.2,0-3.9-1.8-3.9-3.9v-31.5
		C100.2,367.4,101.9,365.6,104.1,365.6z"/>
</g>
<g class="st0">
	<path d="M94.3,83.1h73c2.1,0,3.9,1.7,3.9,3.9v86.5c0,2.1-1.7,3.9-3.9,3.9h-73c-2.1,0-3.8-1.7-3.8-3.9V86.9
		C90.4,84.8,92.2,83.1,94.3,83.1z"/>
	
		<ellipse transform="matrix(7.088900e-02 -0.9975 0.9975 7.088900e-02 -18.5875 260.9446)" class="st1" cx="130.8" cy="140.4" rx="27" ry="27"/>
	<circle class="st1" cx="130.8" cy="94.8" r="4.9"/>
	<rect x="141.7" y="90.1" class="st1" width="24.6" height="9.5"/>
	<circle cx="130.8" cy="140.4" r="18.4"/>
	<path class="st2" d="M90.4,107.9c26.8-4,54-4,80.7,0"/>
</g>
<g class="st0">
	<path class="st3" d="M94.3,184.2h73c2.1,0,3.9,1.7,3.9,3.9v139.8c0,2.1-1.7,3.9-3.9,3.9h-73c-2.1,0-3.8-1.7-3.8-3.9V188.1
		C90.5,185.9,92.2,184.2,94.3,184.2z"/>
	<path class="st5" d="M93.4,304.2c24.4-4.4,49.4-4.4,73.8,0"/>
	<line class="st6" x1="126.9" y1="274.3" x2="126.9" y2="212.8"/>
	<line class="st6" x1="134.7" y1="274.3" x2="134.7" y2="212.8"/>
	<ellipse class="st1" cx="100.4" cy="191.9" rx="3.7" ry="1.7"/>
	<line class="st4" x1="89.4" y1="294.8" x2="172.1" y2="294.8"/>
	<line class="st4" x1="130.8" y1="294" x2="130.8" y2="183.3"/>
</g>
<g class="st0">
	<rect x="90" y="-17.2" width="80.7" height="84.3"/>
	<rect x="96.2" y="-10.2" class="st1" width="68.9" height="9.5"/>
	<line class="st4" x1="90" y1="7.5" x2="170.7" y2="7.5"/>
	<rect x="91.5" y="67.1" width="77.8" height="10"/>
	<ellipse class="st1" cx="132.8" cy="57.8" rx="3.7" ry="1.7"/>
</g>
<g class="st0">
	<path d="M94.5,635h73c2.1,0,3.9,1.7,3.9,3.8v86.5c0,2.1-1.7,3.8-3.9,3.8h-73c-2.1,0-3.8-1.7-3.8-3.8v-86.5
		C90.7,636.7,92.4,635,94.5,635z"/>
	
		<ellipse transform="matrix(0.9985 -5.530037e-02 5.530037e-02 0.9985 -38.0872 8.306)" class="st1" cx="131" cy="692.4" rx="27" ry="27"/>
	<circle class="st1" cx="131" cy="646.7" r="4.9"/>
	<rect x="142" y="642" class="st1" width="24.6" height="9.5"/>
	<circle cx="131" cy="692.4" r="18.4"/>
	<path class="st2" d="M90.7,659.9c26.8-4,54-4,80.7,0"/>
</g>
<g class="st0">
	<path class="st3" d="M94.6,736.1h73c2.1,0,3.9,1.7,3.9,3.8v139.8c0,2.1-1.7,3.8-3.9,3.8h-73c-2.1,0-3.8-1.7-3.8-3.8V740
		C90.7,737.9,92.4,736.1,94.6,736.1z"/>
	<path class="st5" d="M93.7,856.1c24.4-4.4,49.4-4.4,73.7,0"/>
	<line class="st6" x1="127.2" y1="826.2" x2="127.2" y2="764.8"/>
	<line class="st6" x1="135" y1="826.2" x2="135" y2="764.8"/>
	<ellipse class="st1" cx="100.6" cy="743.8" rx="3.7" ry="1.7"/>
	<line class="st4" x1="89.7" y1="846.8" x2="172.4" y2="846.8"/>
	<line class="st4" x1="131.1" y1="846" x2="131.1" y2="735.2"/>
</g>
<g class="st0">
	<rect x="90.3" y="534.7" width="80.7" height="84.3"/>
	<rect x="96.5" y="541.7" class="st1" width="68.9" height="9.5"/>
	<line class="st4" x1="90.3" y1="559.4" x2="171" y2="559.4"/>
	<rect x="91.7" y="619" width="77.8" height="10"/>
	<ellipse class="st1" cx="133" cy="609.7" rx="3.7" ry="1.7"/>
</g>
<g class="st0">
	<path d="M546.1,363.6h73c2.1,0,3.8,1.7,3.8,3.9V454c0,2.1-1.7,3.8-3.8,3.8h-73c-2.1,0-3.8-1.7-3.8-3.8v-86.5
		C542.2,365.3,544,363.6,546.1,363.6z"/>
	<circle class="st1" cx="582.6" cy="421" r="27"/>
	<circle class="st1" cx="582.6" cy="375.3" r="4.9"/>
	<rect x="593.5" y="370.6" class="st1" width="24.6" height="9.5"/>
	<circle cx="582.6" cy="421" r="18.4"/>
	<rect x="548.5" y="370.6" class="st1" width="24.6" height="9.5"/>
	<path class="st2" d="M542.2,388.4c26.8-4,54-4,80.7,0"/>
</g>
<g class="st0">
	<path class="st3" d="M543.6,264.6h78c0.8,0,1.4,0.6,1.4,1.4v91.5c0,0.8-0.6,1.4-1.4,1.4h-78c-0.8,0-1.4-0.6-1.4-1.4V266
		C542.2,265.2,542.8,264.6,543.6,264.6z"/>
	<line class="st4" x1="542.2" y1="286.5" x2="623" y2="286.5"/>
	<line class="st4" x1="542.2" y1="340.4" x2="623" y2="340.4"/>
	<rect x="570.3" y="270.7" class="st1" width="24.6" height="9.5"/>
	<circle class="st1" cx="562.1" cy="275.4" r="3.7"/>
	<circle class="st1" cx="550.6" cy="275.4" r="3.7"/>
	<circle class="st1" cx="614.1" cy="275.4" r="3.7"/>
	<circle class="st1" cx="602.7" cy="275.4" r="3.7"/>
	<path class="st4" d="M556.6,293.8h54.1c2.2,0,3.9,1.8,3.9,3.9v31.5c0,2.2-1.8,3.9-3.9,3.9h-54.1c-2.2,0-3.9-1.8-3.9-3.9v-31.5
		C552.7,295.5,554.4,293.8,556.6,293.8z"/>
</g>
<g class="st0">
	<path d="M546.8,11.2h73c2.1,0,3.8,1.7,3.8,3.8v86.5c0,2.1-1.7,3.9-3.8,3.9h-73c-2.1,0-3.8-1.7-3.8-3.9V15.1
		C543,12.9,544.7,11.2,546.8,11.2z"/>
	<circle class="st1" cx="583.3" cy="68.6" r="27"/>
	<circle class="st1" cx="583.3" cy="23" r="4.9"/>
	<rect x="594.2" y="18.2" class="st1" width="24.6" height="9.5"/>
	<circle cx="583.3" cy="68.6" r="18.4"/>
	<path class="st2" d="M543,36.1c26.8-4,54-4,80.7,0"/>
</g>
<g class="st0">
	<path class="st3" d="M546.8,112.4h73c2.1,0,3.8,1.7,3.8,3.9V256c0,2.1-1.7,3.9-3.8,3.9h-73c-2.1,0-3.8-1.7-3.8-3.9V116.2
		C543,114.1,544.7,112.4,546.8,112.4z"/>
	<path class="st5" d="M546,232.3c24.4-4.4,49.4-4.4,73.8,0"/>
	<line class="st6" x1="579.4" y1="202.4" x2="579.4" y2="141"/>
	<line class="st6" x1="587.3" y1="202.4" x2="587.3" y2="141"/>
	<ellipse class="st1" cx="552.9" cy="120.1" rx="3.7" ry="1.7"/>
	<line class="st4" x1="542" y1="223" x2="624.7" y2="223"/>
	<line class="st4" x1="583.3" y1="222.2" x2="583.3" y2="111.4"/>
</g>
<g class="st0">
	<rect x="542.5" y="-89.1" width="80.7" height="84.3"/>
	<rect x="548.8" y="-82.1" class="st1" width="68.9" height="9.5"/>
	<line class="st4" x1="542.5" y1="-64.4" x2="623.3" y2="-64.4"/>
	<rect x="544" y="-4.8" width="77.8" height="10"/>
	<ellipse class="st1" cx="585.3" cy="-14.1" rx="3.7" ry="1.7"/>
</g>
<g class="st0">
	<path d="M547.1,563.1h73c2.1,0,3.8,1.7,3.8,3.8v86.5c0,2.1-1.7,3.8-3.8,3.8h-73c-2.1,0-3.8-1.7-3.8-3.8V567
		C543.2,564.9,544.9,563.1,547.1,563.1z"/>
	<circle class="st1" cx="583.6" cy="620.5" r="27"/>
	<circle class="st1" cx="583.6" cy="574.9" r="4.9"/>
	<rect x="594.5" y="570.1" class="st1" width="24.6" height="9.5"/>
	<circle cx="583.6" cy="620.5" r="18.4"/>
	<path class="st2" d="M543.2,588c26.8-4,54-4,80.7,0"/>
</g>
<g class="st0">
	<path class="st3" d="M547.1,664.3h73c2.1,0,3.8,1.7,3.8,3.8v139.8c0,2.1-1.7,3.8-3.8,3.8h-73c-2.1,0-3.8-1.7-3.8-3.8V668.1
		C543.2,666,545,664.3,547.1,664.3z"/>
	<path class="st5" d="M546.2,784.2c24.4-4.4,49.4-4.4,73.7,0"/>
	<line class="st6" x1="579.7" y1="754.3" x2="579.7" y2="692.9"/>
	<line class="st6" x1="587.5" y1="754.3" x2="587.5" y2="692.9"/>
	<ellipse class="st1" cx="553.2" cy="672" rx="3.7" ry="1.7"/>
	<line class="st4" x1="542.2" y1="774.9" x2="624.9" y2="774.9"/>
	<line class="st4" x1="583.6" y1="774.1" x2="583.6" y2="663.4"/>
</g>
<g class="st0">
	<rect x="542.8" y="462.8" width="80.7" height="84.3"/>
	<rect x="549" y="469.8" class="st1" width="68.9" height="9.5"/>
	<line class="st4" x1="542.8" y1="487.5" x2="623.5" y2="487.5"/>
	<rect x="544.3" y="547.1" width="77.8" height="10"/>
	<ellipse class="st1" cx="585.6" cy="537.8" rx="3.7" ry="1.7"/>
</g>
<g class="st0">
	<path d="M635.9,63.7h73c2.1,0,3.8,1.7,3.8,3.9v86.5c0,2.1-1.7,3.9-3.8,3.9h-73c-2.1,0-3.8-1.7-3.8-3.9V67.5
		C632,65.4,633.7,63.7,635.9,63.7z"/>
	<circle class="st1" cx="672.4" cy="121" r="27"/>
	<circle class="st1" cx="672.4" cy="75.4" r="4.9"/>
	<rect x="683.3" y="70.7" class="st1" width="24.6" height="9.5"/>
	<circle cx="672.4" cy="121" r="18.4"/>
	<rect x="638.2" y="70.7" class="st1" width="24.6" height="9.5"/>
	<path class="st2" d="M632,88.5c26.8-4,54-4,80.7,0"/>
</g>
<g class="st0">
	<path class="st3" d="M633.4-35.3h78c0.8,0,1.4,0.6,1.4,1.4v91.5c0,0.8-0.6,1.4-1.4,1.4h-78c-0.8,0-1.4-0.6-1.4-1.4v-91.5
		C632-34.7,632.6-35.3,633.4-35.3z"/>
	<line class="st4" x1="632" y1="-13.4" x2="712.7" y2="-13.4"/>
	<line class="st4" x1="632" y1="40.5" x2="712.7" y2="40.5"/>
	<rect x="660.1" y="-29.2" class="st1" width="24.6" height="9.5"/>
	<circle class="st1" cx="651.9" cy="-24.5" r="3.7"/>
	<circle class="st1" cx="640.4" cy="-24.5" r="3.7"/>
	<circle class="st1" cx="703.9" cy="-24.5" r="3.7"/>
	<circle class="st1" cx="692.4" cy="-24.5" r="3.7"/>
	<path class="st4" d="M646.4-6.1h54.1c2.2,0,3.9,1.8,3.9,3.9v31.5c0,2.2-1.8,3.9-3.9,3.9h-54.1c-2.2,0-3.9-1.8-3.9-3.9V-2.2
		C642.5-4.4,644.2-6.1,646.4-6.1z"/>
</g>
<g class="st0">
	<path d="M636.5,615.6h73c2.1,0,3.8,1.7,3.8,3.8V706c0,2.1-1.7,3.8-3.8,3.8h-73c-2.1,0-3.8-1.7-3.8-3.8v-86.5
		C632.7,617.3,634.4,615.6,636.5,615.6z"/>
	<circle class="st1" cx="673" cy="673" r="27"/>
	<circle class="st1" cx="673" cy="627.3" r="4.9"/>
	<rect x="684" y="622.6" class="st1" width="24.6" height="9.5"/>
	<circle cx="673" cy="673" r="18.4"/>
	<rect x="638.9" y="622.6" class="st1" width="24.6" height="9.5"/>
	<path class="st2" d="M632.7,640.4c26.8-4,54-4,80.7,0"/>
</g>
<g class="st0">
	<path class="st3" d="M634.1,516.6h78c0.8,0,1.4,0.6,1.4,1.4v91.5c0,0.8-0.6,1.4-1.4,1.4h-78c-0.8,0-1.4-0.6-1.4-1.4V518
		C632.7,517.2,633.3,516.6,634.1,516.6z"/>
	<line class="st4" x1="632.7" y1="538.5" x2="713.4" y2="538.5"/>
	<line class="st4" x1="632.7" y1="592.4" x2="713.4" y2="592.4"/>
	<rect x="660.8" y="522.7" class="st1" width="24.6" height="9.5"/>
	<circle class="st1" cx="652.6" cy="527.4" r="3.7"/>
	<circle class="st1" cx="641.1" cy="527.4" r="3.7"/>
	<circle class="st1" cx="704.6" cy="527.4" r="3.7"/>
	<circle class="st1" cx="693.1" cy="527.4" r="3.7"/>
	<path class="st4" d="M647,545.8h54.1c2.2,0,3.9,1.8,3.9,3.9v31.5c0,2.2-1.8,3.9-3.9,3.9H647c-2.2,0-3.9-1.8-3.9-3.9v-31.5
		C643.1,547.5,644.9,545.8,647,545.8z"/>
</g>
<g class="st0">
	<path d="M637.3,263.2h73c2.1,0,3.8,1.7,3.8,3.9v86.5c0,2.1-1.7,3.9-3.8,3.9h-73c-2.1,0-3.8-1.7-3.8-3.9v-86.5
		C633.4,264.9,635.1,263.2,637.3,263.2z"/>
	<circle class="st1" cx="673.8" cy="320.6" r="27"/>
	<circle class="st1" cx="673.8" cy="275" r="4.9"/>
	<rect x="684.7" y="270.2" class="st1" width="24.6" height="9.5"/>
	<circle cx="673.8" cy="320.6" r="18.4"/>
	<path class="st2" d="M633.4,288.1c26.8-4,54-4,80.7,0"/>
</g>
<g class="st0">
	<path class="st3" d="M637.3,364.4h73c2.1,0,3.8,1.7,3.8,3.9V508c0,2.1-1.7,3.8-3.8,3.8h-73c-2.1,0-3.8-1.7-3.8-3.8V368.2
		C633.5,366.1,635.2,364.4,637.3,364.4z"/>
	<path class="st5" d="M636.4,484.3c24.4-4.4,49.4-4.4,73.8,0"/>
	<line class="st6" x1="669.9" y1="454.4" x2="669.9" y2="393"/>
	<line class="st6" x1="677.7" y1="454.4" x2="677.7" y2="393"/>
	<ellipse class="st1" cx="643.3" cy="372.1" rx="3.7" ry="1.7"/>
	<line class="st4" x1="632.4" y1="475" x2="715.1" y2="475"/>
	<line class="st4" x1="673.8" y1="474.2" x2="673.8" y2="363.5"/>
</g>
<g class="st0">
	<rect x="633" y="162.9" width="80.7" height="84.3"/>
	<rect x="639.2" y="169.9" class="st1" width="68.9" height="9.5"/>
	<line class="st4" x1="633" y1="187.6" x2="713.7" y2="187.6"/>
	<rect x="634.5" y="247.2" width="77.8" height="10"/>
	<ellipse class="st1" cx="675.8" cy="237.9" rx="3.7" ry="1.7"/>
</g>
<g class="st0">
	<rect x="633.3" y="714.8" width="80.7" height="84.3"/>
	<rect x="639.5" y="721.8" class="st1" width="68.9" height="9.5"/>
	<line class="st4" x1="633.3" y1="739.5" x2="714" y2="739.5"/>
	<rect x="634.7" y="799.1" width="77.8" height="10"/>
	<ellipse class="st1" cx="676" cy="789.8" rx="3.7" ry="1.7"/>
</g>
<g class="st0">
	<path d="M365.5,351.7h73c2.1,0,3.9,1.7,3.9,3.9v86.5c0,2.1-1.7,3.8-3.9,3.8h-73c-2.1,0-3.9-1.7-3.9-3.8v-86.5
		C361.6,353.4,363.4,351.7,365.5,351.7z"/>
	<circle class="st1" cx="402" cy="409" r="27"/>
	<circle class="st1" cx="402" cy="363.4" r="4.9"/>
	<rect x="412.9" y="358.7" class="st1" width="24.6" height="9.5"/>
	<circle cx="402" cy="409" r="18.4"/>
	<rect x="367.9" y="358.7" class="st1" width="24.6" height="9.5"/>
	<path class="st2" d="M361.7,376.5c26.8-4,54-4,80.7,0"/>
</g>
<g class="st0">
	<path class="st3" d="M363,252.7H441c0.8,0,1.4,0.6,1.4,1.4v91.5c0,0.8-0.6,1.4-1.4,1.4H363c-0.8,0-1.4-0.6-1.4-1.4v-91.5
		C361.6,253.3,362.3,252.7,363,252.7z"/>
	<line class="st4" x1="361.6" y1="274.6" x2="442.4" y2="274.6"/>
	<line class="st4" x1="361.6" y1="328.5" x2="442.4" y2="328.5"/>
	<rect x="389.7" y="258.8" class="st1" width="24.6" height="9.5"/>
	<circle class="st1" cx="381.5" cy="263.5" r="3.7"/>
	<circle class="st1" cx="370" cy="263.5" r="3.7"/>
	<circle class="st1" cx="433.5" cy="263.5" r="3.7"/>
	<circle class="st1" cx="422.1" cy="263.5" r="3.7"/>
	<path class="st4" d="M376,281.9h54.1c2.2,0,3.9,1.8,3.9,3.9v31.5c0,2.2-1.8,3.9-3.9,3.9H376c-2.2,0-3.9-1.8-3.9-3.9v-31.5
		C372.1,283.6,373.8,281.9,376,281.9z"/>
</g>
<g class="st0">
	<path d="M366.2-0.7h73c2.1,0,3.9,1.7,3.9,3.8v86.5c0,2.1-1.7,3.9-3.9,3.9h-73c-2.1,0-3.9-1.7-3.9-3.9V3.2
		C362.4,1,364.1-0.7,366.2-0.7z"/>
	<circle class="st1" cx="402.7" cy="56.7" r="27"/>
	<circle class="st1" cx="402.7" cy="11.1" r="4.9"/>
	<rect x="413.6" y="6.3" class="st1" width="24.6" height="9.5"/>
	<circle cx="402.7" cy="56.7" r="18.4"/>
	<path class="st2" d="M362.4,24.2c26.8-4,54-4,80.7,0"/>
</g>
<g class="st0">
	<path class="st3" d="M366.2,100.4h73c2.1,0,3.9,1.7,3.9,3.9v139.8c0,2.1-1.7,3.9-3.9,3.9h-73c-2.1,0-3.9-1.7-3.9-3.9V104.3
		C362.4,102.2,364.1,100.4,366.2,100.4z"/>
	<path class="st5" d="M365.4,220.4c24.4-4.4,49.4-4.4,73.8,0"/>
	<line class="st6" x1="398.8" y1="190.5" x2="398.8" y2="129.1"/>
	<line class="st6" x1="406.7" y1="190.5" x2="406.7" y2="129.1"/>
	<ellipse class="st1" cx="372.3" cy="108.2" rx="3.7" ry="1.7"/>
	<line class="st4" x1="361.4" y1="211.1" x2="444.1" y2="211.1"/>
	<line class="st4" x1="402.8" y1="210.3" x2="402.8" y2="99.5"/>
</g>
<g class="st0">
	<rect x="362" y="-101" width="80.7" height="84.3"/>
	<rect x="368.2" y="-94" class="st1" width="68.9" height="9.5"/>
	<line class="st4" x1="362" y1="-76.3" x2="442.7" y2="-76.3"/>
	<rect x="363.4" y="-16.7" width="77.8" height="10"/>
	<ellipse class="st1" cx="404.7" cy="-26" rx="3.7" ry="1.7"/>
</g>
<g class="st0">
	<path d="M366.9,551.2h73c2.1,0,3.9,1.7,3.9,3.8v86.5c0,2.1-1.7,3.8-3.9,3.8h-73c-2.1,0-3.9-1.7-3.9-3.8v-86.5
		C363,552.9,364.8,551.2,366.9,551.2z"/>
	<circle class="st1" cx="403.4" cy="608.6" r="27"/>
	<circle class="st1" cx="403.4" cy="563" r="4.9"/>
	<rect x="414.3" y="558.2" class="st1" width="24.6" height="9.5"/>
	<circle cx="403.4" cy="608.6" r="18.4"/>
	<path class="st2" d="M363.1,576.1c26.8-4,54-4,80.7,0"/>
</g>
<g class="st0">
	<path class="st3" d="M366.9,652.3h73c2.1,0,3.9,1.7,3.9,3.8V796c0,2.1-1.7,3.8-3.9,3.8h-73c-2.1,0-3.9-1.7-3.9-3.8V656.2
		C363.1,654.1,364.8,652.3,366.9,652.3z"/>
	<path class="st5" d="M366.1,772.3c24.4-4.4,49.4-4.4,73.8,0"/>
	<line class="st6" x1="399.5" y1="742.4" x2="399.5" y2="681"/>
	<line class="st6" x1="407.4" y1="742.4" x2="407.4" y2="681"/>
	<ellipse class="st1" cx="373" cy="660.1" rx="3.7" ry="1.7"/>
	<line class="st4" x1="362.1" y1="763" x2="444.7" y2="763"/>
	<line class="st4" x1="403.4" y1="762.2" x2="403.4" y2="651.5"/>
</g>
<g class="st0">
	<rect x="362.6" y="450.9" width="80.7" height="84.3"/>
	<rect x="368.9" y="457.9" class="st1" width="68.9" height="9.5"/>
	<line class="st4" x1="362.6" y1="475.6" x2="443.4" y2="475.6"/>
	<rect x="364.1" y="535.2" width="77.8" height="10"/>
	<ellipse class="st1" cx="405.4" cy="525.9" rx="3.7" ry="1.7"/>
</g>
<g class="st0">
	<path d="M454.7,423.7h73c2.1,0,3.8,1.7,3.8,3.8v86.5c0,2.1-1.7,3.8-3.8,3.8h-73c-2.1,0-3.9-1.7-3.9-3.8v-86.5
		C450.9,425.4,452.6,423.7,454.7,423.7z"/>
	<ellipse transform="matrix(0.9239 -0.3827 0.3827 0.9239 -146.6957 224.5911)" class="st1" cx="491.2" cy="481" rx="27" ry="27"/>
	<circle class="st1" cx="491.2" cy="435.4" r="4.9"/>
	<rect x="502.1" y="430.7" class="st1" width="24.6" height="9.5"/>
	<circle cx="491.2" cy="481" r="18.4"/>
	<rect x="457.1" y="430.7" class="st1" width="24.6" height="9.5"/>
	<path class="st2" d="M450.9,448.5c26.8-4,54-4,80.7,0"/>
</g>
<g class="st0">
	<path class="st3" d="M452.2,324.7h77.9c0.8,0,1.4,0.6,1.4,1.4v91.5c0,0.8-0.6,1.4-1.4,1.4h-77.9c-0.8,0-1.4-0.6-1.4-1.4v-91.5
		C450.9,325.3,451.5,324.7,452.2,324.7z"/>
	<line class="st4" x1="450.9" y1="346.6" x2="531.6" y2="346.6"/>
	<line class="st4" x1="450.9" y1="400.5" x2="531.6" y2="400.5"/>
	<rect x="478.9" y="330.8" class="st1" width="24.6" height="9.5"/>
	<circle class="st1" cx="470.7" cy="335.5" r="3.7"/>
	<circle class="st1" cx="459.2" cy="335.5" r="3.7"/>
	<circle class="st1" cx="522.8" cy="335.5" r="3.7"/>
	<ellipse transform="matrix(0.1602 -0.9871 0.9871 0.1602 98.1844 786.462)" class="st1" cx="511.3" cy="335.5" rx="3.7" ry="3.7"/>
	<path class="st4" d="M465.2,353.9h54.1c2.2,0,3.9,1.8,3.9,3.9v31.5c0,2.2-1.8,3.9-3.9,3.9h-54.1c-2.2,0-3.9-1.8-3.9-3.9v-31.5
		C461.3,355.6,463,353.9,465.2,353.9z"/>
</g>
<g class="st0">
	<path d="M455.4,71.3h73c2.1,0,3.8,1.7,3.8,3.9v86.5c0,2.1-1.7,3.9-3.8,3.9h-73c-2.1,0-3.9-1.7-3.9-3.9V75.2
		C451.6,73,453.3,71.3,455.4,71.3z"/>
	<ellipse transform="matrix(0.1602 -0.9871 0.9871 0.1602 286.1328 593.6288)" class="st1" cx="491.9" cy="128.7" rx="27" ry="27"/>
	<circle class="st1" cx="491.9" cy="83.1" r="4.9"/>
	<rect x="502.9" y="78.3" class="st1" width="24.6" height="9.5"/>
	<circle cx="491.9" cy="128.7" r="18.4"/>
	<path class="st2" d="M451.6,96.2c26.8-4,54-4,80.7,0"/>
</g>
<g class="st0">
	<path class="st3" d="M455.5,172.4h73c2.1,0,3.8,1.7,3.8,3.9v139.8c0,2.1-1.7,3.9-3.8,3.9h-73c-2.1,0-3.9-1.7-3.9-3.9V176.3
		C451.6,174.2,453.3,172.4,455.5,172.4z"/>
	<path class="st5" d="M454.6,292.4c24.4-4.4,49.4-4.4,73.8,0"/>
	<line class="st6" x1="488" y1="262.5" x2="488" y2="201"/>
	<line class="st6" x1="495.9" y1="262.5" x2="495.9" y2="201"/>
	<ellipse class="st1" cx="461.5" cy="180.2" rx="3.7" ry="1.7"/>
	<line class="st4" x1="450.6" y1="283.1" x2="533.3" y2="283.1"/>
	<line class="st4" x1="492" y1="282.3" x2="492" y2="171.5"/>
</g>
<g class="st0">
	<rect x="451.2" y="-29" width="80.7" height="84.3"/>
	<rect x="457.4" y="-22" class="st1" width="68.9" height="9.5"/>
	<line class="st4" x1="451.2" y1="-4.3" x2="531.9" y2="-4.3"/>
	<rect x="452.6" y="55.3" width="77.8" height="10"/>
	<ellipse class="st1" cx="493.9" cy="46" rx="3.7" ry="1.7"/>
</g>
<g class="st0">
	<path d="M456.1,623.2h73c2.1,0,3.8,1.7,3.8,3.8v86.5c0,2.1-1.7,3.8-3.8,3.8h-73c-2.1,0-3.9-1.7-3.9-3.8v-86.5
		C452.2,624.9,454,623.2,456.1,623.2z"/>
	<ellipse transform="matrix(0.9239 -0.3827 0.3827 0.9239 -222.949 240.3198)" class="st1" cx="492.6" cy="680.6" rx="27" ry="27"/>
	<circle class="st1" cx="492.6" cy="635" r="4.9"/>
	<rect x="503.5" y="630.2" class="st1" width="24.6" height="9.5"/>
	<circle cx="492.6" cy="680.6" r="18.4"/>
	<path class="st2" d="M452.2,648.1c26.8-4,54-4,80.7,0"/>
</g>
<g class="st0">
	<path class="st3" d="M456.1,724.3h73c2.1,0,3.8,1.7,3.8,3.8V868c0,2.1-1.7,3.8-3.8,3.8h-73c-2.1,0-3.9-1.7-3.9-3.8V728.2
		C452.3,726.1,454,724.3,456.1,724.3z"/>
	<path class="st5" d="M455.2,844.3c24.4-4.4,49.4-4.4,73.8,0"/>
	<line class="st6" x1="488.7" y1="814.4" x2="488.7" y2="753"/>
	<line class="st6" x1="496.6" y1="814.4" x2="496.6" y2="753"/>
	<ellipse class="st1" cx="462.2" cy="732.1" rx="3.7" ry="1.7"/>
	<line class="st4" x1="451.3" y1="835" x2="534" y2="835"/>
	<line class="st4" x1="492.6" y1="834.2" x2="492.6" y2="723.5"/>
</g>
<g class="st0">
	<rect x="451.9" y="522.9" width="80.7" height="84.3"/>
	<rect x="458.1" y="529.9" class="st1" width="68.9" height="9.5"/>
	<line class="st4" x1="451.9" y1="547.6" x2="532.6" y2="547.6"/>
	<rect x="453.3" y="607.2" width="77.8" height="10"/>
	<ellipse class="st1" cx="494.6" cy="597.9" rx="3.7" ry="1.7"/>
</g>
<g class="st0">
	<path d="M185.6,1201.7h73c2.1,0,3.9,1.7,3.9,3.8v86.5c0,2.1-1.7,3.8-3.9,3.8h-73c-2.1,0-3.9-1.7-3.9-3.8v-86.5
		C181.7,1203.4,183.5,1201.7,185.6,1201.7z"/>
	<circle class="st1" cx="222.1" cy="1259" r="27"/>
	<circle class="st1" cx="222.1" cy="1213.4" r="4.9"/>
	<rect x="233" y="1208.7" class="st1" width="24.6" height="9.5"/>
	<circle cx="222.1" cy="1259" r="18.4"/>
	<rect x="187.9" y="1208.7" class="st1" width="24.6" height="9.5"/>
	<path class="st2" d="M181.7,1226.5c26.8-4,54-4,80.7,0"/>
</g>
<g class="st0">
	<path class="st3" d="M183.1,1102.7h77.9c0.8,0,1.4,0.6,1.4,1.4v91.5c0,0.8-0.6,1.4-1.4,1.4h-77.9c-0.8,0-1.4-0.6-1.4-1.4v-91.5
		C181.7,1103.3,182.3,1102.7,183.1,1102.7z"/>
	<line class="st4" x1="181.7" y1="1124.6" x2="262.4" y2="1124.6"/>
	<line class="st4" x1="181.7" y1="1178.5" x2="262.4" y2="1178.5"/>
	<rect x="209.8" y="1108.8" class="st1" width="24.6" height="9.5"/>
	<circle class="st1" cx="201.6" cy="1113.5" r="3.7"/>
	<circle class="st1" cx="190.1" cy="1113.5" r="3.7"/>
	<circle class="st1" cx="253.6" cy="1113.5" r="3.7"/>
	<circle class="st1" cx="242.2" cy="1113.5" r="3.7"/>
	<path class="st4" d="M196.1,1131.8h54.1c2.2,0,3.9,1.8,3.9,3.9v31.5c0,2.2-1.8,3.9-3.9,3.9h-54.1c-2.2,0-3.9-1.8-3.9-3.9v-31.5
		C192.2,1133.6,193.9,1131.8,196.1,1131.8z"/>
</g>
<g class="st0">
	<path d="M186.3,849.3h73c2.1,0,3.9,1.7,3.9,3.9v86.5c0,2.1-1.7,3.9-3.9,3.9h-73c-2.1,0-3.9-1.7-3.9-3.9v-86.5
		C182.4,851,184.2,849.3,186.3,849.3z"/>
	<circle class="st1" cx="222.8" cy="906.7" r="27"/>
	<circle class="st1" cx="222.8" cy="861" r="4.9"/>
	<rect x="233.7" y="856.3" class="st1" width="24.6" height="9.5"/>
	<circle cx="222.8" cy="906.7" r="18.4"/>
	<path class="st2" d="M182.4,874.1c26.8-4,54-4,80.7,0"/>
</g>
<g class="st0">
	<path class="st3" d="M186.3,950.4h73c2.1,0,3.9,1.7,3.9,3.9v139.8c0,2.1-1.7,3.8-3.9,3.8h-73c-2.1,0-3.9-1.7-3.9-3.8V954.3
		C182.5,952.2,184.2,950.4,186.3,950.4z"/>
	<path class="st5" d="M185.4,1070.4c24.4-4.4,49.4-4.4,73.8,0"/>
	<line class="st6" x1="218.9" y1="1040.5" x2="218.9" y2="979"/>
	<line class="st6" x1="226.8" y1="1040.5" x2="226.8" y2="979"/>
	<ellipse class="st1" cx="192.4" cy="958.1" rx="3.7" ry="1.7"/>
	<line class="st4" x1="181.5" y1="1061" x2="264.1" y2="1061"/>
	<line class="st4" x1="222.8" y1="1060.3" x2="222.8" y2="949.5"/>
</g>
<g class="st0">
	<path class="st3" d="M183.4,1654.6h77.9c0.8,0,1.4,0.6,1.4,1.4v91.5c0,0.8-0.6,1.4-1.4,1.4h-77.9c-0.8,0-1.4-0.6-1.4-1.4V1656
		C182,1655.2,182.6,1654.6,183.4,1654.6z"/>
	<line class="st4" x1="182" y1="1676.5" x2="262.7" y2="1676.5"/>
	<line class="st4" x1="182" y1="1730.4" x2="262.7" y2="1730.4"/>
	<rect x="210.1" y="1660.7" class="st1" width="24.6" height="9.5"/>
	<circle class="st1" cx="201.9" cy="1665.4" r="3.7"/>
	<circle class="st1" cx="190.4" cy="1665.4" r="3.7"/>
	
		<ellipse transform="matrix(0.1602 -0.9871 0.9871 0.1602 -1430.6962 1649.2737)" class="st1" cx="253.9" cy="1665.4" rx="3.7" ry="3.7"/>
	<circle class="st1" cx="242.4" cy="1665.4" r="3.7"/>
	<path class="st4" d="M196.4,1683.8h54.1c2.2,0,3.9,1.8,3.9,3.9v31.5c0,2.2-1.8,3.9-3.9,3.9h-54.1c-2.2,0-3.9-1.8-3.9-3.9v-31.5
		C192.4,1685.5,194.2,1683.8,196.4,1683.8z"/>
</g>
<g class="st0">
	<path d="M186.6,1401.2h73c2.1,0,3.9,1.7,3.9,3.8v86.5c0,2.1-1.7,3.8-3.9,3.8h-73c-2.1,0-3.9-1.7-3.9-3.8v-86.5
		C182.7,1402.9,184.4,1401.2,186.6,1401.2z"/>
	<circle class="st1" cx="223.1" cy="1458.6" r="27"/>
	<circle class="st1" cx="223.1" cy="1412.9" r="4.9"/>
	<rect x="234" y="1408.2" class="st1" width="24.6" height="9.5"/>
	<circle cx="223.1" cy="1458.6" r="18.4"/>
	<path class="st2" d="M182.7,1426.1c26.8-4,54-4,80.7,0"/>
</g>
<g class="st0">
	<path class="st3" d="M186.6,1502.3h73c2.1,0,3.9,1.7,3.9,3.8V1646c0,2.1-1.7,3.8-3.9,3.8h-73c-2.1,0-3.9-1.7-3.9-3.8v-139.8
		C182.7,1504.1,184.5,1502.3,186.6,1502.3z"/>
	<path class="st5" d="M185.7,1622.3c24.4-4.4,49.4-4.4,73.8,0"/>
	<line class="st6" x1="219.2" y1="1592.4" x2="219.2" y2="1531"/>
	<line class="st6" x1="227" y1="1592.4" x2="227" y2="1531"/>
	<ellipse class="st1" cx="192.6" cy="1510.1" rx="3.7" ry="1.7"/>
	<line class="st4" x1="181.7" y1="1613" x2="264.4" y2="1613"/>
	<line class="st4" x1="223.1" y1="1612.2" x2="223.1" y2="1501.4"/>
</g>
<g class="st0">
	<rect x="182.3" y="1300.9" width="80.7" height="84.3"/>
	<rect x="188.5" y="1307.9" class="st1" width="68.9" height="9.5"/>
	<line class="st4" x1="182.3" y1="1325.6" x2="263" y2="1325.6"/>
	<rect x="183.7" y="1385.2" width="77.8" height="10"/>
	<ellipse class="st1" cx="225.1" cy="1375.9" rx="3.7" ry="1.7"/>
</g>
<g class="st0">
	<path d="M276,930.8h73c2.1,0,3.9,1.7,3.9,3.9v86.5c0,2.1-1.7,3.8-3.9,3.8h-73c-2.1,0-3.9-1.7-3.9-3.8v-86.5
		C272.2,932.5,273.9,930.8,276,930.8z"/>
	<circle class="st1" cx="312.5" cy="988.2" r="27"/>
	<circle class="st1" cx="312.5" cy="942.5" r="4.9"/>
	<rect x="323.5" y="937.8" class="st1" width="24.6" height="9.5"/>
	<circle cx="312.5" cy="988.2" r="18.4"/>
	<rect x="278.4" y="937.8" class="st1" width="24.6" height="9.5"/>
	<path class="st2" d="M272.2,955.6c26.8-4,54-4,80.7,0"/>
</g>
<g class="st0">
	<path class="st3" d="M273.6,831.8h77.9c0.8,0,1.4,0.6,1.4,1.4v91.5c0,0.8-0.6,1.4-1.4,1.4h-77.9c-0.8,0-1.4-0.6-1.4-1.4v-91.5
		C272.2,832.4,272.8,831.8,273.6,831.8z"/>
	<line class="st4" x1="272.2" y1="853.7" x2="352.9" y2="853.7"/>
	<line class="st4" x1="272.2" y1="907.6" x2="352.9" y2="907.6"/>
	<rect x="300.2" y="837.9" class="st1" width="24.6" height="9.5"/>
	<circle class="st1" cx="292.1" cy="842.6" r="3.7"/>
	<circle class="st1" cx="280.6" cy="842.6" r="3.7"/>
	<circle class="st1" cx="344.1" cy="842.6" r="3.7"/>
	<circle class="st1" cx="332.6" cy="842.6" r="3.7"/>
	<path class="st4" d="M286.5,861h54.1c2.2,0,3.9,1.8,3.9,3.9v31.5c0,2.2-1.8,3.9-3.9,3.9h-54.1c-2.2,0-3.9-1.8-3.9-3.9v-31.5
		C282.6,862.7,284.4,861,286.5,861z"/>
</g>
<g class="st0">
	<path d="M276.3,1482.7h73c2.1,0,3.9,1.7,3.9,3.8v86.5c0,2.1-1.7,3.8-3.9,3.8h-73c-2.1,0-3.9-1.7-3.9-3.8v-86.5
		C272.4,1484.4,274.2,1482.7,276.3,1482.7z"/>
	<circle class="st1" cx="312.8" cy="1540.1" r="27"/>
	<circle class="st1" cx="312.8" cy="1494.4" r="4.9"/>
	<rect x="323.7" y="1489.7" class="st1" width="24.6" height="9.5"/>
	<circle cx="312.8" cy="1540.1" r="18.4"/>
	<rect x="278.7" y="1489.7" class="st1" width="24.6" height="9.5"/>
	<path class="st2" d="M272.4,1507.5c26.8-4,54-4,80.7,0"/>
</g>
<g class="st0">
	<path class="st3" d="M273.8,1383.7h77.9c0.8,0,1.4,0.6,1.4,1.4v91.5c0,0.8-0.6,1.4-1.4,1.4h-77.9c-0.8,0-1.4-0.6-1.4-1.4v-91.5
		C272.4,1384.3,273.1,1383.7,273.8,1383.7z"/>
	<line class="st4" x1="272.4" y1="1405.6" x2="353.2" y2="1405.6"/>
	<line class="st4" x1="272.4" y1="1459.5" x2="353.2" y2="1459.5"/>
	<rect x="300.5" y="1389.8" class="st1" width="24.6" height="9.5"/>
	<circle class="st1" cx="292.3" cy="1394.6" r="3.7"/>
	<circle class="st1" cx="280.8" cy="1394.6" r="3.7"/>
	<circle class="st1" cx="344.3" cy="1394.6" r="3.7"/>
	<circle class="st1" cx="332.9" cy="1394.6" r="3.7"/>
	<path class="st4" d="M286.8,1412.9h54.1c2.2,0,3.9,1.8,3.9,3.9v31.5c0,2.2-1.8,3.9-3.9,3.9h-54.1c-2.2,0-3.9-1.8-3.9-3.9v-31.5
		C282.9,1414.6,284.6,1412.9,286.8,1412.9z"/>
</g>
<g class="st0">
	<path d="M277,1130.3h73c2.1,0,3.9,1.7,3.9,3.8v86.5c0,2.1-1.7,3.8-3.9,3.8h-73c-2.1,0-3.9-1.7-3.9-3.8v-86.5
		C273.2,1132.1,274.9,1130.3,277,1130.3z"/>
	<circle class="st1" cx="313.5" cy="1187.7" r="27"/>
	<circle class="st1" cx="313.5" cy="1142.1" r="4.9"/>
	<rect x="324.4" y="1137.3" class="st1" width="24.6" height="9.5"/>
	<circle cx="313.5" cy="1187.7" r="18.4"/>
	<path class="st2" d="M273.2,1155.2c26.8-4,54-4,80.7,0"/>
</g>
<g class="st0">
	<path class="st3" d="M277,1231.5h73c2.1,0,3.9,1.7,3.9,3.8v139.8c0,2.1-1.7,3.8-3.9,3.8h-73c-2.1,0-3.9-1.7-3.9-3.8v-139.8
		C273.2,1233.2,274.9,1231.5,277,1231.5z"/>
	<path class="st5" d="M276.2,1351.5c24.4-4.4,49.4-4.4,73.8,0"/>
	<line class="st6" x1="309.6" y1="1321.5" x2="309.6" y2="1260.1"/>
	<line class="st6" x1="317.5" y1="1321.5" x2="317.5" y2="1260.1"/>
	<ellipse class="st1" cx="283.1" cy="1239.2" rx="3.7" ry="1.7"/>
	<line class="st4" x1="272.2" y1="1342.1" x2="354.9" y2="1342.1"/>
	<line class="st4" x1="313.6" y1="1341.3" x2="313.6" y2="1230.6"/>
</g>
<g class="st0">
	<rect x="272.8" y="1030" width="80.7" height="84.3"/>
	<rect x="279" y="1037" class="st1" width="68.9" height="9.5"/>
	<line class="st4" x1="272.8" y1="1054.8" x2="353.5" y2="1054.8"/>
	<rect x="274.2" y="1114.3" width="77.8" height="10"/>
	<ellipse class="st1" cx="315.5" cy="1105" rx="3.7" ry="1.7"/>
</g>
<g class="st0">
	<rect x="273.4" y="1581.9" width="80.7" height="84.3"/>
	<rect x="279.7" y="1588.9" class="st1" width="68.9" height="9.5"/>
	<line class="st4" x1="273.4" y1="1606.7" x2="354.2" y2="1606.7"/>
	<rect x="274.9" y="1666.2" width="77.8" height="10"/>
	<ellipse class="st1" cx="316.2" cy="1656.9" rx="3.7" ry="1.7"/>
</g>
<g class="st0">
	<path d="M5.7,1099.2h73c2.1,0,3.8,1.7,3.8,3.8v86.5c0,2.1-1.7,3.8-3.8,3.8h-73c-2.1,0-3.8-1.7-3.8-3.8v-86.5
		C1.8,1101,3.5,1099.2,5.7,1099.2z"/>
	<circle class="st1" cx="42.2" cy="1156.6" r="27"/>
	<circle class="st1" cx="42.2" cy="1111" r="4.9"/>
	<rect x="53.1" y="1106.2" class="st1" width="24.6" height="9.5"/>
	<circle cx="42.2" cy="1156.6" r="18.4"/>
	<rect x="8" y="1106.2" class="st1" width="24.6" height="9.5"/>
	<path class="st2" d="M1.8,1124.1c13.1-2,26.4-3,39.7-3c13.7,0,27.4,1,41,3"/>
</g>
<g class="st0">
	<path class="st3" d="M3.2,1000.3h78c0.8,0,1.4,0.6,1.4,1.4v91.5c0,0.8-0.6,1.4-1.4,1.4h-78c-0.8,0-1.4-0.6-1.4-1.4v-91.5
		C1.8,1000.9,2.4,1000.3,3.2,1000.3z"/>
	<line class="st4" x1="1.8" y1="1022.1" x2="82.5" y2="1022.1"/>
	<line class="st4" x1="1.8" y1="1076" x2="82.5" y2="1076"/>
	<rect x="29.9" y="1006.3" class="st1" width="24.6" height="9.5"/>
	<circle class="st1" cx="21.7" cy="1011.1" r="3.7"/>
	<circle class="st1" cx="10.2" cy="1011.1" r="3.7"/>
	<circle class="st1" cx="73.7" cy="1011.1" r="3.7"/>
	<circle class="st1" cx="62.2" cy="1011.1" r="3.7"/>
	<path class="st4" d="M16.2,1029.4h54.1c2.2,0,3.9,1.8,3.9,3.9v31.5c0,2.2-1.8,3.9-3.9,3.9H16.2c-2.2,0-3.9-1.8-3.9-3.9v-31.5
		C12.3,1031.2,14,1029.4,16.2,1029.4z"/>
</g>
<g class="st0">
	<path class="st3" d="M6.4,848h73c2.1,0,3.8,1.7,3.8,3.8v139.8c0,2.1-1.7,3.8-3.8,3.8h-73c-2.1,0-3.8-1.7-3.8-3.8V851.9
		C2.6,849.7,4.3,848,6.4,848z"/>
	<path class="st5" d="M5.5,968c12-2.2,24.1-3.3,36.3-3.3c12.6,0,25.1,1.1,37.5,3.3"/>
	<line class="st6" x1="39" y1="938.1" x2="39" y2="876.6"/>
	<line class="st6" x1="46.8" y1="938.1" x2="46.8" y2="876.6"/>
	<ellipse class="st1" cx="12.5" cy="855.7" rx="3.7" ry="1.7"/>
	<line class="st4" x1="1.6" y1="958.6" x2="84.2" y2="958.6"/>
	<line class="st4" x1="42.9" y1="957.8" x2="42.9" y2="847.1"/>
</g>
<g class="st0">
	<path d="M5.9,1651.2h73c2.1,0,3.8,1.7,3.8,3.8v86.5c0,2.1-1.7,3.8-3.8,3.8h-73c-2.1,0-3.8-1.7-3.8-3.8V1655
		C2.1,1652.9,3.8,1651.2,5.9,1651.2z"/>
	
		<ellipse transform="matrix(1.850899e-02 -0.9998 0.9998 1.850899e-02 -1666.5741 1719.3242)" class="st1" cx="42.4" cy="1708.5" rx="27" ry="27"/>
	<circle class="st1" cx="42.4" cy="1662.9" r="4.9"/>
	<rect x="53.4" y="1658.1" class="st1" width="24.6" height="9.5"/>
	<circle cx="42.4" cy="1708.5" r="18.4"/>
	<rect x="8.3" y="1658.1" class="st1" width="24.6" height="9.5"/>
	<path class="st2" d="M2,1676c13.1-2,26.4-3,39.7-3c13.7,0,27.4,1,41,3"/>
</g>
<g class="st0">
	<path class="st3" d="M3.5,1552.2h78c0.8,0,1.4,0.6,1.4,1.4v91.5c0,0.8-0.6,1.4-1.4,1.4h-78c-0.8,0-1.4-0.6-1.4-1.4v-91.5
		C2.1,1552.8,2.7,1552.2,3.5,1552.2z"/>
	<line class="st4" x1="2.1" y1="1574" x2="82.8" y2="1574"/>
	<line class="st4" x1="2.1" y1="1628" x2="82.8" y2="1628"/>
	<rect x="30.1" y="1558.2" class="st1" width="24.6" height="9.5"/>
	<circle class="st1" cx="21.9" cy="1563" r="3.7"/>
	<circle class="st1" cx="10.5" cy="1563" r="3.7"/>
	<circle class="st1" cx="74" cy="1563" r="3.7"/>
	<circle class="st1" cx="62.5" cy="1563" r="3.7"/>
	<path class="st4" d="M16.4,1581.3h54.1c2.2,0,3.9,1.8,3.9,3.9v31.5c0,2.2-1.8,3.9-3.9,3.9H16.4c-2.2,0-3.9-1.8-3.9-3.9v-31.5
		C12.5,1583.1,14.3,1581.3,16.4,1581.3z"/>
</g>
<g class="st0">
	<path d="M6.6,1298.8h73c2.1,0,3.8,1.7,3.8,3.9v86.5c0,2.1-1.7,3.8-3.8,3.8h-73c-2.1,0-3.8-1.7-3.8-3.8v-86.5
		C2.8,1300.5,4.5,1298.8,6.6,1298.8z"/>
	
		<ellipse transform="matrix(1.850899e-02 -0.9998 0.9998 1.850899e-02 -1313.5479 1374.1863)" class="st1" cx="43.2" cy="1356.1" rx="27" ry="27"/>
	<circle class="st1" cx="43.2" cy="1310.5" r="4.9"/>
	<rect x="54.1" y="1305.8" class="st1" width="24.6" height="9.5"/>
	<circle cx="43.2" cy="1356.1" r="18.4"/>
	<path class="st2" d="M2.8,1323.6c13.1-2,26.4-3,39.7-3c13.7,0,27.4,1,41,3"/>
</g>
<g class="st0">
	<path class="st3" d="M6.7,1399.9h73c2.1,0,3.8,1.7,3.8,3.8v139.8c0,2.1-1.7,3.8-3.8,3.8h-73c-2.1,0-3.8-1.7-3.8-3.8v-139.8
		C2.8,1401.6,4.6,1399.9,6.7,1399.9z"/>
	<path class="st5" d="M5.8,1519.9c24.4-4.4,49.4-4.4,73.8,0"/>
	<line class="st6" x1="39.3" y1="1490" x2="39.3" y2="1428.5"/>
	<line class="st6" x1="47.1" y1="1490" x2="47.1" y2="1428.5"/>
	<ellipse class="st1" cx="12.7" cy="1407.6" rx="3.7" ry="1.7"/>
	<line class="st4" x1="1.8" y1="1510.5" x2="84.5" y2="1510.5"/>
	<line class="st4" x1="43.2" y1="1509.7" x2="43.2" y2="1399"/>
</g>
<g class="st0">
	<rect x="2.4" y="1198.5" width="80.7" height="84.3"/>
	<rect x="8.6" y="1205.5" class="st1" width="68.9" height="9.5"/>
	<line class="st4" x1="2.4" y1="1223.2" x2="83.1" y2="1223.2"/>
	<rect x="3.8" y="1282.7" width="77.8" height="10"/>
	<ellipse class="st1" cx="45.2" cy="1273.5" rx="3.7" ry="1.7"/>
</g>
<g class="st0">
	<path d="M94.9,1345.7h73c2.1,0,3.9,1.7,3.9,3.8v86.5c0,2.1-1.7,3.8-3.9,3.8h-73c-2.1,0-3.8-1.7-3.8-3.8v-86.5
		C91,1347.4,92.8,1345.7,94.9,1345.7z"/>
	
		<ellipse transform="matrix(3.327792e-02 -0.9994 0.9994 3.327792e-02 -1275.2462 1487.6417)" class="st1" cx="131.4" cy="1403" rx="27" ry="27"/>
	<circle class="st1" cx="131.4" cy="1357.4" r="4.9"/>
	<rect x="142.3" y="1352.7" class="st1" width="24.6" height="9.5"/>
	<circle cx="131.4" cy="1403" r="18.4"/>
	<rect x="97.2" y="1352.7" class="st1" width="24.6" height="9.5"/>
	<path class="st2" d="M91,1370.5c26.8-4,54-4,80.7,0"/>
</g>
<g class="st0">
	<path class="st3" d="M92.4,1246.7h77.9c0.8,0,1.4,0.6,1.4,1.4v91.5c0,0.8-0.6,1.4-1.4,1.4H92.4c-0.8,0-1.4-0.6-1.4-1.4v-91.5
		C91,1247.3,91.6,1246.7,92.4,1246.7z"/>
	<line class="st4" x1="91" y1="1268.6" x2="171.7" y2="1268.6"/>
	<line class="st4" x1="91" y1="1322.5" x2="171.7" y2="1322.5"/>
	<rect x="119.1" y="1252.8" class="st1" width="24.6" height="9.5"/>
	<circle class="st1" cx="110.9" cy="1257.5" r="3.7"/>
	<circle class="st1" cx="99.4" cy="1257.5" r="3.7"/>
	<circle class="st1" cx="162.9" cy="1257.5" r="3.7"/>
	<circle class="st1" cx="151.5" cy="1257.5" r="3.7"/>
	<path class="st4" d="M105.4,1275.8h54.1c2.2,0,3.9,1.8,3.9,3.9v31.5c0,2.2-1.8,3.9-3.9,3.9h-54.1c-2.2,0-3.9-1.8-3.9-3.9v-31.5
		C101.5,1277.6,103.2,1275.8,105.4,1275.8z"/>
</g>
<g class="st0">
	<path d="M95.6,993.3h73c2.1,0,3.9,1.7,3.9,3.9v86.5c0,2.1-1.7,3.8-3.9,3.8h-73c-2.1,0-3.8-1.7-3.8-3.8v-86.5
		C91.7,995,93.5,993.3,95.6,993.3z"/>
	
		<ellipse transform="matrix(7.088900e-02 -0.9975 0.9975 7.088900e-02 -925.2823 1107.942)" class="st1" cx="132.1" cy="1050.7" rx="27" ry="27"/>
	<circle class="st1" cx="132.1" cy="1005" r="4.9"/>
	<rect x="143" y="1000.3" class="st1" width="24.6" height="9.5"/>
	<circle cx="132.1" cy="1050.7" r="18.4"/>
	<path class="st2" d="M91.7,1018.1c26.8-4,54-4,80.7,0"/>
</g>
<g class="st0">
	<path class="st3" d="M95.6,1094.4h73c2.1,0,3.9,1.7,3.9,3.8v139.8c0,2.1-1.7,3.8-3.9,3.8h-73c-2.1,0-3.8-1.7-3.8-3.8v-139.8
		C91.8,1096.2,93.5,1094.4,95.6,1094.4z"/>
	<path class="st5" d="M94.7,1214.4c24.4-4.4,49.4-4.4,73.8,0"/>
	<line class="st6" x1="128.2" y1="1184.5" x2="128.2" y2="1123"/>
	<line class="st6" x1="136" y1="1184.5" x2="136" y2="1123"/>
	<ellipse class="st1" cx="101.7" cy="1102.1" rx="3.7" ry="1.7"/>
	<line class="st4" x1="90.8" y1="1205" x2="173.4" y2="1205"/>
	<line class="st4" x1="132.1" y1="1204.3" x2="132.1" y2="1093.5"/>
</g>
<g class="st0">
	<rect x="91.3" y="893" width="80.7" height="84.3"/>
	<rect x="97.6" y="900" class="st1" width="68.9" height="9.5"/>
	<line class="st4" x1="91.3" y1="917.7" x2="172" y2="917.7"/>
	<rect x="92.8" y="977.3" width="77.8" height="10"/>
	<ellipse class="st1" cx="134.1" cy="968" rx="3.7" ry="1.7"/>
</g>
<g class="st0">
	<path d="M95.9,1545.2h73c2.1,0,3.9,1.7,3.9,3.8v86.5c0,2.1-1.7,3.8-3.9,3.8h-73c-2.1,0-3.8-1.7-3.8-3.8v-86.5
		C92,1546.9,93.7,1545.2,95.9,1545.2z"/>
	
		<ellipse transform="matrix(0.9985 -5.530037e-02 5.530037e-02 0.9985 -88.4201 9.7717)" class="st1" cx="132.4" cy="1602.6" rx="27" ry="27"/>
	<circle class="st1" cx="132.4" cy="1556.9" r="4.9"/>
	<rect x="143.3" y="1552.2" class="st1" width="24.6" height="9.5"/>
	<circle cx="132.4" cy="1602.6" r="18.4"/>
	<path class="st2" d="M92,1570.1c26.8-4,54-4,80.7,0"/>
</g>
<g class="st0">
	<path class="st3" d="M95.9,1646.3h73c2.1,0,3.9,1.7,3.9,3.8V1790c0,2.1-1.7,3.8-3.9,3.8h-73c-2.1,0-3.8-1.7-3.8-3.8v-139.8
		C92,1648.1,93.8,1646.3,95.9,1646.3z"/>
	<path class="st5" d="M95,1766.3c24.4-4.4,49.4-4.4,73.7,0"/>
	<line class="st6" x1="128.5" y1="1736.4" x2="128.5" y2="1675"/>
	<line class="st6" x1="136.3" y1="1736.4" x2="136.3" y2="1675"/>
	<ellipse class="st1" cx="101.9" cy="1654.1" rx="3.7" ry="1.7"/>
	<line class="st4" x1="91" y1="1757" x2="173.7" y2="1757"/>
	<line class="st4" x1="132.4" y1="1756.2" x2="132.4" y2="1645.4"/>
</g>
<g class="st0">
	<rect x="91.6" y="1444.9" width="80.7" height="84.3"/>
	<rect x="97.8" y="1451.9" class="st1" width="68.9" height="9.5"/>
	<line class="st4" x1="91.6" y1="1469.6" x2="172.3" y2="1469.6"/>
	<rect x="93" y="1529.2" width="77.8" height="10"/>
	<ellipse class="st1" cx="134.4" cy="1519.9" rx="3.7" ry="1.7"/>
</g>
<g class="st0">
	<path d="M547.4,1273.8h73c2.1,0,3.8,1.7,3.8,3.8v86.5c0,2.1-1.7,3.8-3.8,3.8h-73c-2.1,0-3.8-1.7-3.8-3.8v-86.5
		C543.5,1275.5,545.3,1273.8,547.4,1273.8z"/>
	<circle class="st1" cx="583.9" cy="1331.2" r="27"/>
	<circle class="st1" cx="583.9" cy="1285.5" r="4.9"/>
	<rect x="594.8" y="1280.8" class="st1" width="24.6" height="9.5"/>
	<circle cx="583.9" cy="1331.2" r="18.4"/>
	<rect x="549.8" y="1280.8" class="st1" width="24.6" height="9.5"/>
	<path class="st2" d="M543.6,1298.6c26.8-4,54-4,80.7,0"/>
</g>
<g class="st0">
	<path class="st3" d="M544.9,1174.8h78c0.8,0,1.4,0.6,1.4,1.4v91.5c0,0.8-0.6,1.4-1.4,1.4h-78c-0.8,0-1.4-0.6-1.4-1.4v-91.5
		C543.5,1175.4,544.2,1174.8,544.9,1174.8z"/>
	<line class="st4" x1="543.5" y1="1196.7" x2="624.3" y2="1196.7"/>
	<line class="st4" x1="543.5" y1="1250.6" x2="624.3" y2="1250.6"/>
	<rect x="571.6" y="1180.9" class="st1" width="24.6" height="9.5"/>
	<circle class="st1" cx="563.4" cy="1185.6" r="3.7"/>
	<circle class="st1" cx="551.9" cy="1185.6" r="3.7"/>
	<circle class="st1" cx="615.5" cy="1185.6" r="3.7"/>
	<circle class="st1" cx="604" cy="1185.6" r="3.7"/>
	<path class="st4" d="M557.9,1204H612c2.2,0,3.9,1.8,3.9,3.9v31.5c0,2.2-1.8,3.9-3.9,3.9h-54.1c-2.2,0-3.9-1.8-3.9-3.9v-31.5
		C554,1205.7,555.8,1204,557.9,1204z"/>
</g>
<g class="st0">
	<path d="M548.1,921.4h73c2.1,0,3.8,1.7,3.8,3.9v86.5c0,2.1-1.7,3.9-3.8,3.9h-73c-2.1,0-3.8-1.7-3.8-3.9v-86.5
		C544.3,923.2,546,921.4,548.1,921.4z"/>
	<circle class="st1" cx="584.6" cy="978.8" r="27"/>
	<circle class="st1" cx="584.6" cy="933.2" r="4.9"/>
	<rect x="595.6" y="928.4" class="st1" width="24.6" height="9.5"/>
	<circle cx="584.6" cy="978.8" r="18.4"/>
	<path class="st2" d="M544.3,946.3c26.8-4,54-4,80.7,0"/>
</g>
<g class="st0">
	<path class="st3" d="M548.2,1022.6h73c2.1,0,3.8,1.7,3.8,3.8v139.8c0,2.1-1.7,3.8-3.8,3.8h-73c-2.1,0-3.8-1.7-3.8-3.8v-139.8
		C544.3,1024.3,546,1022.6,548.2,1022.6z"/>
	<path class="st5" d="M547.3,1142.5c24.4-4.4,49.4-4.4,73.8,0"/>
	<line class="st6" x1="580.7" y1="1112.6" x2="580.7" y2="1051.2"/>
	<line class="st6" x1="588.6" y1="1112.6" x2="588.6" y2="1051.2"/>
	<ellipse class="st1" cx="554.2" cy="1030.3" rx="3.7" ry="1.7"/>
	<line class="st4" x1="543.3" y1="1133.2" x2="626" y2="1133.2"/>
	<line class="st4" x1="584.7" y1="1132.4" x2="584.7" y2="1021.7"/>
</g>
<g class="st0">
	<rect x="543.9" y="821.1" width="80.7" height="84.3"/>
	<rect x="550.1" y="828.1" class="st1" width="68.9" height="9.5"/>
	<line class="st4" x1="543.9" y1="845.8" x2="624.6" y2="845.8"/>
	<rect x="545.3" y="905.4" width="77.8" height="10"/>
	<ellipse class="st1" cx="586.6" cy="896.1" rx="3.7" ry="1.7"/>
</g>
<g class="st0">
	<path d="M548.4,1473.3h73c2.1,0,3.8,1.7,3.8,3.8v86.5c0,2.1-1.7,3.8-3.8,3.8h-73c-2.1,0-3.8-1.7-3.8-3.8v-86.5
		C544.5,1475.1,546.3,1473.3,548.4,1473.3z"/>
	<circle class="st1" cx="584.9" cy="1530.7" r="27"/>
	<circle class="st1" cx="584.9" cy="1485.1" r="4.9"/>
	<rect x="595.8" y="1480.3" class="st1" width="24.6" height="9.5"/>
	<circle cx="584.9" cy="1530.7" r="18.4"/>
	<path class="st2" d="M544.5,1498.2c26.8-4,54-4,80.7,0"/>
</g>
<g class="st0">
	<path class="st3" d="M548.4,1574.5h73c2.1,0,3.8,1.7,3.8,3.8v139.8c0,2.1-1.7,3.8-3.8,3.8h-73c-2.1,0-3.8-1.7-3.8-3.8v-139.8
		C544.6,1576.2,546.3,1574.5,548.4,1574.5z"/>
	<path class="st5" d="M547.5,1694.5c24.4-4.4,49.4-4.4,73.7,0"/>
	<line class="st6" x1="581" y1="1664.5" x2="581" y2="1603.1"/>
	<line class="st6" x1="588.8" y1="1664.5" x2="588.8" y2="1603.1"/>
	<ellipse class="st1" cx="554.5" cy="1582.2" rx="3.7" ry="1.7"/>
	<line class="st4" x1="543.5" y1="1685.1" x2="626.2" y2="1685.1"/>
	<line class="st4" x1="584.9" y1="1684.3" x2="584.9" y2="1573.6"/>
</g>
<g class="st0">
	<rect x="544.1" y="1373" width="80.7" height="84.3"/>
	<rect x="550.4" y="1380" class="st1" width="68.9" height="9.5"/>
	<line class="st4" x1="544.1" y1="1397.8" x2="624.8" y2="1397.8"/>
	<rect x="545.6" y="1457.3" width="77.8" height="10"/>
	<ellipse class="st1" cx="586.9" cy="1448" rx="3.7" ry="1.7"/>
</g>
<g class="st0">
	<path d="M637.2,918.9h73c2.1,0,3.8,1.7,3.8,3.8v86.5c0,2.1-1.7,3.8-3.8,3.8h-73c-2.1,0-3.8-1.7-3.8-3.8v-86.5
		C633.3,920.6,635.1,918.9,637.2,918.9z"/>
	<circle class="st1" cx="673.7" cy="976.2" r="27"/>
	<circle class="st1" cx="673.7" cy="930.6" r="4.9"/>
	<rect x="684.6" y="925.9" class="st1" width="24.6" height="9.5"/>
	<circle cx="673.7" cy="976.2" r="18.4"/>
	<rect x="639.5" y="925.9" class="st1" width="24.6" height="9.5"/>
	<path class="st2" d="M633.3,943.7c26.8-4,54-4,80.7,0"/>
</g>
<g class="st0">
	<path class="st3" d="M634.7,819.9h78c0.8,0,1.4,0.6,1.4,1.4v91.5c0,0.8-0.6,1.4-1.4,1.4h-78c-0.8,0-1.4-0.6-1.4-1.4v-91.5
		C633.3,820.5,633.9,819.9,634.7,819.9z"/>
	<line class="st4" x1="633.3" y1="841.8" x2="714" y2="841.8"/>
	<line class="st4" x1="633.3" y1="895.7" x2="714" y2="895.7"/>
	<rect x="661.4" y="826" class="st1" width="24.6" height="9.5"/>
	<circle class="st1" cx="653.2" cy="830.7" r="3.7"/>
	<circle class="st1" cx="641.7" cy="830.7" r="3.7"/>
	<circle class="st1" cx="705.2" cy="830.7" r="3.7"/>
	<circle class="st1" cx="693.8" cy="830.7" r="3.7"/>
	<path class="st4" d="M647.7,849.1h54.1c2.2,0,3.9,1.8,3.9,3.9v31.5c0,2.2-1.8,3.9-3.9,3.9h-54.1c-2.2,0-3.9-1.8-3.9-3.9V853
		C643.8,850.8,645.5,849.1,647.7,849.1z"/>
</g>
<g class="st0">
	<path d="M637.9,1470.8h73c2.1,0,3.8,1.7,3.8,3.8v86.5c0,2.1-1.7,3.8-3.8,3.8h-73c-2.1,0-3.8-1.7-3.8-3.8v-86.5
		C634,1472.5,635.7,1470.8,637.9,1470.8z"/>
	<circle class="st1" cx="674.4" cy="1528.2" r="27"/>
	<circle class="st1" cx="674.4" cy="1482.5" r="4.9"/>
	<rect x="685.3" y="1477.8" class="st1" width="24.6" height="9.5"/>
	<circle cx="674.4" cy="1528.2" r="18.4"/>
	<rect x="640.2" y="1477.8" class="st1" width="24.6" height="9.5"/>
	<path class="st2" d="M634,1495.6c26.8-4,54-4,80.7,0"/>
</g>
<g class="st0">
	<path class="st3" d="M635.4,1371.8h78c0.8,0,1.4,0.6,1.4,1.4v91.5c0,0.8-0.6,1.4-1.4,1.4h-78c-0.8,0-1.4-0.6-1.4-1.4v-91.5
		C634,1372.4,634.6,1371.8,635.4,1371.8z"/>
	<line class="st4" x1="634" y1="1393.7" x2="714.7" y2="1393.7"/>
	<line class="st4" x1="634" y1="1447.6" x2="714.7" y2="1447.6"/>
	<rect x="662.1" y="1377.9" class="st1" width="24.6" height="9.5"/>
	<circle class="st1" cx="653.9" cy="1382.6" r="3.7"/>
	<circle class="st1" cx="642.4" cy="1382.6" r="3.7"/>
	<circle class="st1" cx="705.9" cy="1382.6" r="3.7"/>
	<circle class="st1" cx="694.4" cy="1382.6" r="3.7"/>
	<path class="st4" d="M648.4,1401h54.1c2.2,0,3.9,1.8,3.9,3.9v31.5c0,2.2-1.8,3.9-3.9,3.9h-54.1c-2.2,0-3.9-1.8-3.9-3.9v-31.5
		C644.4,1402.7,646.2,1401,648.4,1401z"/>
</g>
<g class="st0">
	<path d="M638.6,1118.4h73c2.1,0,3.8,1.7,3.8,3.8v86.5c0,2.1-1.7,3.8-3.8,3.8h-73c-2.1,0-3.8-1.7-3.8-3.8v-86.5
		C634.7,1120.2,636.5,1118.4,638.6,1118.4z"/>
	<circle class="st1" cx="675.1" cy="1175.8" r="27"/>
	<circle class="st1" cx="675.1" cy="1130.2" r="4.9"/>
	<rect x="686" y="1125.4" class="st1" width="24.6" height="9.5"/>
	<circle cx="675.1" cy="1175.8" r="18.4"/>
	<path class="st2" d="M634.7,1143.3c26.8-4,54-4,80.7,0"/>
</g>
<g class="st0">
	<path class="st3" d="M638.6,1219.6h73c2.1,0,3.8,1.7,3.8,3.8v139.8c0,2.1-1.7,3.8-3.8,3.8h-73c-2.1,0-3.8-1.7-3.8-3.8v-139.8
		C634.8,1221.3,636.5,1219.6,638.6,1219.6z"/>
	<path class="st5" d="M637.7,1339.5c24.4-4.4,49.4-4.4,73.8,0"/>
	<line class="st6" x1="671.2" y1="1309.6" x2="671.2" y2="1248.2"/>
	<line class="st6" x1="679" y1="1309.6" x2="679" y2="1248.2"/>
	<ellipse class="st1" cx="644.7" cy="1227.3" rx="3.7" ry="1.7"/>
	<line class="st4" x1="633.7" y1="1330.2" x2="716.4" y2="1330.2"/>
	<line class="st4" x1="675.1" y1="1329.4" x2="675.1" y2="1218.7"/>
</g>
<g class="st0">
	<rect x="634.3" y="1018.1" width="80.7" height="84.3"/>
	<rect x="640.5" y="1025.1" class="st1" width="68.9" height="9.5"/>
	<line class="st4" x1="634.3" y1="1042.8" x2="715" y2="1042.8"/>
	<rect x="635.8" y="1102.4" width="77.8" height="10"/>
	<ellipse class="st1" cx="677.1" cy="1093.1" rx="3.7" ry="1.7"/>
</g>
<g class="st0">
	<rect x="634.6" y="1570" width="80.7" height="84.3"/>
	<rect x="640.8" y="1577" class="st1" width="68.9" height="9.5"/>
	<line class="st4" x1="634.6" y1="1594.8" x2="715.3" y2="1594.8"/>
	<rect x="636" y="1654.3" width="77.8" height="10"/>
	<ellipse class="st1" cx="677.3" cy="1645" rx="3.7" ry="1.7"/>
</g>
<g class="st0">
	<path d="M366.8,1261.9h73c2.1,0,3.9,1.7,3.9,3.9v86.5c0,2.1-1.7,3.8-3.9,3.8h-73c-2.1,0-3.9-1.7-3.9-3.8v-86.5
		C363,1263.6,364.7,1261.9,366.8,1261.9z"/>
	<circle class="st1" cx="403.3" cy="1319.2" r="27"/>
	<circle class="st1" cx="403.3" cy="1273.6" r="4.9"/>
	<rect x="414.2" y="1268.9" class="st1" width="24.6" height="9.5"/>
	<circle cx="403.3" cy="1319.2" r="18.4"/>
	<rect x="369.2" y="1268.9" class="st1" width="24.6" height="9.5"/>
	<path class="st2" d="M363,1286.7c26.8-4,54-4,80.7,0"/>
</g>
<g class="st0">
	<path class="st3" d="M364.3,1162.9h77.9c0.8,0,1.4,0.6,1.4,1.4v91.5c0,0.8-0.6,1.4-1.4,1.4h-77.9c-0.8,0-1.4-0.6-1.4-1.4v-91.5
		C363,1163.5,363.6,1162.9,364.3,1162.9z"/>
	<line class="st4" x1="363" y1="1184.8" x2="443.7" y2="1184.8"/>
	<line class="st4" x1="363" y1="1238.7" x2="443.7" y2="1238.7"/>
	<rect x="391" y="1169" class="st1" width="24.6" height="9.5"/>
	<circle class="st1" cx="382.8" cy="1173.7" r="3.7"/>
	<circle class="st1" cx="371.4" cy="1173.7" r="3.7"/>
	<circle class="st1" cx="434.9" cy="1173.7" r="3.7"/>
	<circle class="st1" cx="423.4" cy="1173.7" r="3.7"/>
	<path class="st4" d="M377.3,1192.1h54.1c2.2,0,3.9,1.8,3.9,3.9v31.5c0,2.2-1.8,3.9-3.9,3.9h-54.1c-2.2,0-3.9-1.8-3.9-3.9V1196
		C373.4,1193.8,375.2,1192.1,377.3,1192.1z"/>
</g>
<g class="st0">
	<path d="M367.5,909.5h73c2.1,0,3.9,1.7,3.9,3.8v86.5c0,2.1-1.7,3.8-3.9,3.8h-73c-2.1,0-3.9-1.7-3.9-3.8v-86.5
		C363.7,911.2,365.4,909.5,367.5,909.5z"/>
	<circle class="st1" cx="404" cy="966.9" r="27"/>
	<circle class="st1" cx="404" cy="921.3" r="4.9"/>
	<rect x="415" y="916.5" class="st1" width="24.6" height="9.5"/>
	<circle cx="404" cy="966.9" r="18.4"/>
	<path class="st2" d="M363.7,934.4c26.8-4,54-4,80.7,0"/>
</g>
<g class="st0">
	<path class="st3" d="M367.6,1010.6h73c2.1,0,3.9,1.7,3.9,3.8v139.8c0,2.1-1.7,3.8-3.9,3.8h-73c-2.1,0-3.9-1.7-3.9-3.8v-139.8
		C363.7,1012.4,365.4,1010.6,367.6,1010.6z"/>
	<path class="st5" d="M366.7,1130.6c24.4-4.4,49.4-4.4,73.8,0"/>
	<line class="st6" x1="400.2" y1="1100.7" x2="400.2" y2="1039.3"/>
	<line class="st6" x1="408" y1="1100.7" x2="408" y2="1039.3"/>
	<ellipse class="st1" cx="373.6" cy="1018.4" rx="3.7" ry="1.7"/>
	<line class="st4" x1="362.7" y1="1121.3" x2="445.4" y2="1121.3"/>
	<line class="st4" x1="404.1" y1="1120.5" x2="404.1" y2="1009.7"/>
</g>
<g class="st0">
	<rect x="363.3" y="809.2" width="80.7" height="84.3"/>
	<rect x="369.5" y="816.2" class="st1" width="68.9" height="9.5"/>
	<line class="st4" x1="363.3" y1="833.9" x2="444" y2="833.9"/>
	<rect x="364.7" y="893.5" width="77.8" height="10"/>
	<ellipse class="st1" cx="406" cy="884.2" rx="3.7" ry="1.7"/>
</g>
<g class="st0">
	<path d="M368.2,1461.4h73c2.1,0,3.9,1.7,3.9,3.8v86.5c0,2.1-1.7,3.8-3.9,3.8h-73c-2.1,0-3.9-1.7-3.9-3.8v-86.5
		C364.4,1463.2,366.1,1461.4,368.2,1461.4z"/>
	<circle class="st1" cx="404.7" cy="1518.8" r="27"/>
	<circle class="st1" cx="404.7" cy="1473.2" r="4.9"/>
	<rect x="415.6" y="1468.4" class="st1" width="24.6" height="9.5"/>
	<circle cx="404.7" cy="1518.8" r="18.4"/>
	<path class="st2" d="M364.4,1486.3c26.8-4,54-4,80.7,0"/>
</g>
<g class="st0">
	<path class="st3" d="M368.2,1562.6h73c2.1,0,3.9,1.7,3.9,3.8v139.8c0,2.1-1.7,3.8-3.9,3.8h-73c-2.1,0-3.9-1.7-3.9-3.8v-139.8
		C364.4,1564.3,366.1,1562.6,368.2,1562.6z"/>
	<path class="st5" d="M367.4,1682.5c24.4-4.4,49.4-4.4,73.8,0"/>
	<line class="st6" x1="400.8" y1="1652.6" x2="400.8" y2="1591.2"/>
	<line class="st6" x1="408.7" y1="1652.6" x2="408.7" y2="1591.2"/>
	<ellipse class="st1" cx="374.3" cy="1570.3" rx="3.7" ry="1.7"/>
	<line class="st4" x1="363.4" y1="1673.2" x2="446.1" y2="1673.2"/>
	<line class="st4" x1="404.8" y1="1672.4" x2="404.8" y2="1561.7"/>
</g>
<g class="st0">
	<rect x="364" y="1361.1" width="80.7" height="84.3"/>
	<rect x="370.2" y="1368.1" class="st1" width="68.9" height="9.5"/>
	<line class="st4" x1="364" y1="1385.8" x2="444.7" y2="1385.8"/>
	<rect x="365.4" y="1445.4" width="77.8" height="10"/>
	<ellipse class="st1" cx="406.7" cy="1436.1" rx="3.7" ry="1.7"/>
</g>
<g class="st0">
	<path d="M456,1333.9h73c2.1,0,3.8,1.7,3.8,3.8v86.5c0,2.1-1.7,3.8-3.8,3.8h-73c-2.1,0-3.9-1.7-3.9-3.8v-86.5
		C452.2,1335.6,453.9,1333.9,456,1333.9z"/>
	
		<ellipse transform="matrix(0.9239 -0.3827 0.3827 0.9239 -494.917 294.3804)" class="st1" cx="492.5" cy="1391.2" rx="27" ry="27"/>
	<circle class="st1" cx="492.5" cy="1345.6" r="4.9"/>
	<rect x="503.4" y="1340.9" class="st1" width="24.6" height="9.5"/>
	<circle cx="492.5" cy="1391.2" r="18.4"/>
	<rect x="458.4" y="1340.9" class="st1" width="24.6" height="9.5"/>
	<path class="st2" d="M452.2,1358.7c26.8-4,54-4,80.7,0"/>
</g>
<g class="st0">
	<path class="st3" d="M453.5,1234.9h78c0.8,0,1.4,0.6,1.4,1.4v91.5c0,0.8-0.6,1.4-1.4,1.4h-78c-0.8,0-1.4-0.6-1.4-1.4v-91.5
		C452.2,1235.5,452.8,1234.9,453.5,1234.9z"/>
	<line class="st4" x1="452.2" y1="1256.8" x2="532.9" y2="1256.8"/>
	<line class="st4" x1="452.2" y1="1310.7" x2="532.9" y2="1310.7"/>
	<rect x="480.2" y="1241" class="st1" width="24.6" height="9.5"/>
	<circle class="st1" cx="472" cy="1245.7" r="3.7"/>
	<circle class="st1" cx="460.6" cy="1245.7" r="3.7"/>
	<circle class="st1" cx="524.1" cy="1245.7" r="3.7"/>
	
		<ellipse transform="matrix(0.1602 -0.9871 0.9871 0.1602 -799.1647 1552.1699)" class="st1" cx="512.6" cy="1245.7" rx="3.7" ry="3.7"/>
	<path class="st4" d="M466.5,1264.1h54.1c2.2,0,3.9,1.8,3.9,3.9v31.5c0,2.2-1.8,3.9-3.9,3.9h-54.1c-2.2,0-3.9-1.8-3.9-3.9V1268
		C462.6,1265.8,464.4,1264.1,466.5,1264.1z"/>
</g>
<g class="st0">
	<path d="M456.7,981.5h73c2.1,0,3.8,1.7,3.8,3.8v86.5c0,2.1-1.7,3.9-3.8,3.9h-73c-2.1,0-3.9-1.7-3.9-3.9v-86.5
		C452.9,983.2,454.6,981.5,456.7,981.5z"/>
	
		<ellipse transform="matrix(0.1602 -0.9871 0.9871 0.1602 -611.2163 1359.337)" class="st1" cx="493.2" cy="1038.9" rx="27" ry="27"/>
	<circle class="st1" cx="493.2" cy="993.3" r="4.9"/>
	<rect x="504.2" y="988.5" class="st1" width="24.6" height="9.5"/>
	<circle cx="493.2" cy="1038.9" r="18.4"/>
	<path class="st2" d="M452.9,1006.4c26.8-4,54-4,80.7,0"/>
</g>
<g class="st0">
	<path class="st3" d="M456.8,1082.6h73c2.1,0,3.8,1.7,3.8,3.9v139.8c0,2.1-1.7,3.8-3.8,3.8h-73c-2.1,0-3.9-1.7-3.9-3.8v-139.8
		C452.9,1084.4,454.6,1082.6,456.8,1082.6z"/>
	<path class="st5" d="M455.9,1202.6c24.4-4.4,49.4-4.4,73.7,0"/>
	<line class="st6" x1="489.4" y1="1172.7" x2="489.4" y2="1111.3"/>
	<line class="st6" x1="497.2" y1="1172.7" x2="497.2" y2="1111.3"/>
	<ellipse class="st1" cx="462.8" cy="1090.4" rx="3.7" ry="1.7"/>
	<line class="st4" x1="451.9" y1="1193.3" x2="534.6" y2="1193.3"/>
	<line class="st4" x1="493.3" y1="1192.5" x2="493.3" y2="1081.7"/>
</g>
<g class="st0">
	<rect x="452.5" y="881.2" width="80.7" height="84.3"/>
	<rect x="458.7" y="888.2" class="st1" width="68.9" height="9.5"/>
	<line class="st4" x1="452.5" y1="905.9" x2="533.2" y2="905.9"/>
	<rect x="453.9" y="965.5" width="77.8" height="10"/>
	<ellipse class="st1" cx="495.2" cy="956.2" rx="3.7" ry="1.7"/>
</g>
<g class="st0">
	<path d="M457.4,1533.4h73c2.1,0,3.8,1.7,3.8,3.8v86.5c0,2.1-1.7,3.8-3.8,3.8h-73c-2.1,0-3.9-1.7-3.9-3.8v-86.5
		C453.6,1535.2,455.3,1533.4,457.4,1533.4z"/>
	
		<ellipse transform="matrix(0.9239 -0.3827 0.3827 0.9239 -571.1703 310.1091)" class="st1" cx="493.9" cy="1590.8" rx="27" ry="27"/>
	<circle class="st1" cx="493.9" cy="1545.2" r="4.9"/>
	<rect x="504.8" y="1540.4" class="st1" width="24.6" height="9.5"/>
	<circle cx="493.9" cy="1590.8" r="18.4"/>
	<path class="st2" d="M453.6,1558.3c26.8-4,54-4,80.7,0"/>
</g>
<g class="st0">
	<path class="st3" d="M457.5,1634.6h73c2.1,0,3.8,1.7,3.8,3.8v139.8c0,2.1-1.7,3.8-3.8,3.8h-73c-2.1,0-3.9-1.7-3.9-3.8v-139.8
		C453.6,1636.3,455.3,1634.6,457.5,1634.6z"/>
	<path class="st5" d="M456.6,1754.5c24.4-4.4,49.4-4.4,73.7,0"/>
	<line class="st6" x1="490" y1="1724.6" x2="490" y2="1663.2"/>
	<line class="st6" x1="497.9" y1="1724.6" x2="497.9" y2="1663.2"/>
	<ellipse class="st1" cx="463.5" cy="1642.3" rx="3.7" ry="1.7"/>
	<line class="st4" x1="452.6" y1="1745.2" x2="535.3" y2="1745.2"/>
	<line class="st4" x1="494" y1="1744.4" x2="494" y2="1633.7"/>
</g>
<g class="st0">
	<rect x="453.2" y="1433.1" width="80.7" height="84.3"/>
	<rect x="459.4" y="1440.1" class="st1" width="68.9" height="9.5"/>
	<line class="st4" x1="453.2" y1="1457.8" x2="533.9" y2="1457.8"/>
	<rect x="454.6" y="1517.4" width="77.8" height="10"/>
	<ellipse class="st1" cx="495.9" cy="1508.1" rx="3.7" ry="1.7"/>
</g>
<g class="st0">
	<path d="M184.1,2111.9h73c2.1,0,3.9,1.7,3.9,3.9v86.5c0,2.1-1.7,3.8-3.9,3.8h-73c-2.1,0-3.9-1.7-3.9-3.8v-86.5
		C180.3,2113.6,182,2111.9,184.1,2111.9z"/>
	<circle class="st1" cx="220.6" cy="2169.3" r="27"/>
	<circle class="st1" cx="220.6" cy="2123.6" r="4.9"/>
	<rect x="231.5" y="2118.9" class="st1" width="24.6" height="9.5"/>
	<circle cx="220.6" cy="2169.3" r="18.4"/>
	<rect x="186.5" y="2118.9" class="st1" width="24.6" height="9.5"/>
	<path class="st2" d="M180.3,2136.8c26.8-4,54-4,80.7,0"/>
</g>
<g class="st0">
	<path class="st3" d="M181.6,2012.9h77.9c0.8,0,1.4,0.6,1.4,1.4v91.5c0,0.8-0.6,1.4-1.4,1.4h-77.9c-0.8,0-1.4-0.6-1.4-1.4v-91.5
		C180.3,2013.5,180.9,2012.9,181.6,2012.9z"/>
	<line class="st4" x1="180.3" y1="2034.8" x2="261" y2="2034.8"/>
	<line class="st4" x1="180.3" y1="2088.7" x2="261" y2="2088.7"/>
	<rect x="208.3" y="2019" class="st1" width="24.6" height="9.5"/>
	<circle class="st1" cx="200.1" cy="2023.8" r="3.7"/>
	<circle class="st1" cx="188.7" cy="2023.8" r="3.7"/>
	<circle class="st1" cx="252.2" cy="2023.8" r="3.7"/>
	<circle class="st1" cx="240.7" cy="2023.8" r="3.7"/>
	<path class="st4" d="M194.6,2042.1h54.1c2.2,0,3.9,1.8,3.9,3.9v31.5c0,2.2-1.8,3.9-3.9,3.9h-54.1c-2.2,0-3.9-1.8-3.9-3.9V2046
		C190.7,2043.8,192.5,2042.1,194.6,2042.1z"/>
</g>
<g class="st0">
	<path d="M184.8,1759.5h73c2.1,0,3.9,1.7,3.9,3.8v86.5c0,2.1-1.7,3.8-3.9,3.8h-73c-2.1,0-3.9-1.7-3.9-3.8v-86.5
		C181,1761.3,182.7,1759.5,184.8,1759.5z"/>
	<circle class="st1" cx="221.3" cy="1816.9" r="27"/>
	<circle class="st1" cx="221.3" cy="1771.3" r="4.9"/>
	<rect x="232.3" y="1766.5" class="st1" width="24.6" height="9.5"/>
	<circle cx="221.3" cy="1816.9" r="18.4"/>
	<path class="st2" d="M181,1784.4c26.8-4,54-4,80.7,0"/>
</g>
<g class="st0">
	<path class="st3" d="M184.9,1860.7h73c2.1,0,3.9,1.7,3.9,3.8v139.8c0,2.1-1.7,3.8-3.9,3.8h-73c-2.1,0-3.9-1.7-3.9-3.8v-139.8
		C181,1862.4,182.7,1860.7,184.9,1860.7z"/>
	<path class="st5" d="M184,1980.7c24.4-4.4,49.4-4.4,73.8,0"/>
	<line class="st6" x1="217.5" y1="1950.7" x2="217.5" y2="1889.3"/>
	<line class="st6" x1="225.3" y1="1950.7" x2="225.3" y2="1889.3"/>
	<ellipse class="st1" cx="190.9" cy="1868.4" rx="3.7" ry="1.7"/>
	<line class="st4" x1="180" y1="1971.3" x2="262.7" y2="1971.3"/>
	<line class="st4" x1="221.4" y1="1970.5" x2="221.4" y2="1859.8"/>
</g>
<g class="st0">
	<rect x="180.8" y="2211.1" width="80.7" height="84.3"/>
	<rect x="187.1" y="2218.1" class="st1" width="68.9" height="9.5"/>
	<line class="st4" x1="180.8" y1="2235.9" x2="261.5" y2="2235.9"/>
	<rect x="182.3" y="2295.4" width="77.8" height="10"/>
	<ellipse class="st1" cx="223.6" cy="2286.1" rx="3.7" ry="1.7"/>
</g>
<g class="st0">
	<path d="M277.1,1783.9h73c2.1,0,3.9,1.7,3.9,3.8v86.5c0,2.1-1.7,3.8-3.9,3.8h-73c-2.1,0-3.9-1.7-3.9-3.8v-86.5
		C273.2,1785.6,275,1783.9,277.1,1783.9z"/>
	<circle class="st1" cx="313.6" cy="1841.2" r="27"/>
	<circle class="st1" cx="313.6" cy="1795.6" r="4.9"/>
	<rect x="324.5" y="1790.9" class="st1" width="24.6" height="9.5"/>
	<circle cx="313.6" cy="1841.2" r="18.4"/>
	<rect x="279.5" y="1790.9" class="st1" width="24.6" height="9.5"/>
	<path class="st2" d="M273.2,1808.7c26.8-4,54-4,80.7,0"/>
</g>
<g class="st0">
	<path class="st3" d="M274.6,1684.9h77.9c0.8,0,1.4,0.6,1.4,1.4v91.5c0,0.8-0.6,1.4-1.4,1.4h-77.9c-0.8,0-1.4-0.6-1.4-1.4v-91.5
		C273.2,1685.5,273.9,1684.9,274.6,1684.9z"/>
	<line class="st4" x1="273.2" y1="1706.8" x2="354" y2="1706.8"/>
	<line class="st4" x1="273.2" y1="1760.7" x2="354" y2="1760.7"/>
	<rect x="301.3" y="1691" class="st1" width="24.6" height="9.5"/>
	<circle class="st1" cx="293.1" cy="1695.7" r="3.7"/>
	<circle class="st1" cx="281.6" cy="1695.7" r="3.7"/>
	<circle class="st1" cx="345.1" cy="1695.7" r="3.7"/>
	<circle class="st1" cx="333.7" cy="1695.7" r="3.7"/>
	<path class="st4" d="M287.6,1714.1h54.1c2.2,0,3.9,1.8,3.9,3.9v31.5c0,2.2-1.8,3.9-3.9,3.9h-54.1c-2.2,0-3.9-1.8-3.9-3.9V1718
		C283.7,1715.8,285.4,1714.1,287.6,1714.1z"/>
</g>
<g class="st0">
	<path class="st3" d="M274.9,2236.8h77.9c0.8,0,1.4,0.6,1.4,1.4v91.5c0,0.8-0.6,1.4-1.4,1.4h-77.9c-0.8,0-1.4-0.6-1.4-1.4v-91.5
		C273.5,2237.4,274.1,2236.8,274.9,2236.8z"/>
	<line class="st4" x1="273.5" y1="2258.7" x2="354.2" y2="2258.7"/>
	<line class="st4" x1="273.5" y1="2312.6" x2="354.2" y2="2312.6"/>
	<rect x="301.6" y="2242.9" class="st1" width="24.6" height="9.5"/>
	<circle class="st1" cx="293.4" cy="2247.6" r="3.7"/>
	<circle class="st1" cx="281.9" cy="2247.6" r="3.7"/>
	<circle class="st1" cx="345.4" cy="2247.6" r="3.7"/>
	<circle class="st1" cx="333.9" cy="2247.6" r="3.7"/>
	<path class="st4" d="M287.9,2266h54.1c2.2,0,3.9,1.8,3.9,3.9v31.5c0,2.2-1.8,3.9-3.9,3.9h-54.1c-2.2,0-3.9-1.8-3.9-3.9v-31.5
		C283.9,2267.7,285.7,2266,287.9,2266z"/>
</g>
<g class="st0">
	<path d="M278.1,1983.4h73c2.1,0,3.9,1.7,3.9,3.9v86.5c0,2.1-1.7,3.9-3.9,3.9h-73c-2.1,0-3.9-1.7-3.9-3.9v-86.5
		C274.2,1985.1,275.9,1983.4,278.1,1983.4z"/>
	<circle class="st1" cx="314.6" cy="2040.8" r="27"/>
	<circle class="st1" cx="314.6" cy="1995.2" r="4.9"/>
	<rect x="325.5" y="1990.4" class="st1" width="24.6" height="9.5"/>
	<circle cx="314.6" cy="2040.8" r="18.4"/>
	<path class="st2" d="M274.2,2008.3c26.8-4,54-4,80.7,0"/>
</g>
<g class="st0">
	<path class="st3" d="M278.1,2084.6h73c2.1,0,3.9,1.7,3.9,3.9v139.8c0,2.1-1.7,3.8-3.9,3.8h-73c-2.1,0-3.9-1.7-3.9-3.8v-139.8
		C274.3,2086.3,276,2084.6,278.1,2084.6z"/>
	<path class="st5" d="M277.2,2204.5c24.4-4.4,49.4-4.4,73.8,0"/>
	<line class="st6" x1="310.7" y1="2174.6" x2="310.7" y2="2113.2"/>
	<line class="st6" x1="318.5" y1="2174.6" x2="318.5" y2="2113.2"/>
	<ellipse class="st1" cx="284.2" cy="2092.3" rx="3.7" ry="1.7"/>
	<line class="st4" x1="273.2" y1="2195.2" x2="355.9" y2="2195.2"/>
	<line class="st4" x1="314.6" y1="2194.4" x2="314.6" y2="2083.7"/>
</g>
<g class="st0">
	<rect x="273.8" y="1883.1" width="80.7" height="84.3"/>
	<rect x="280" y="1890.1" class="st1" width="68.9" height="9.5"/>
	<line class="st4" x1="273.8" y1="1907.8" x2="354.5" y2="1907.8"/>
	<rect x="275.3" y="1967.4" width="77.8" height="10"/>
	<ellipse class="st1" cx="316.6" cy="1958.1" rx="3.7" ry="1.7"/>
</g>
<g class="st0">
	<path d="M4.2,2009.5h73c2.1,0,3.8,1.7,3.8,3.8v86.5c0,2.1-1.7,3.9-3.8,3.9h-73c-2.1,0-3.8-1.7-3.8-3.9v-86.5
		C0.3,2011.2,2.1,2009.5,4.2,2009.5z"/>
	<circle class="st1" cx="40.7" cy="2066.8" r="27"/>
	<circle class="st1" cx="40.7" cy="2021.2" r="4.9"/>
	<rect x="51.6" y="2016.5" class="st1" width="24.6" height="9.5"/>
	<circle cx="40.7" cy="2066.8" r="18.4"/>
	<rect x="6.6" y="2016.5" class="st1" width="24.6" height="9.5"/>
	<path class="st2" d="M0.3,2034.3c13.1-2,26.4-3,39.7-3c13.7,0,27.4,1,41,3"/>
</g>
<g class="st0">
	<path class="st3" d="M1.7,1910.5h78c0.8,0,1.4,0.6,1.4,1.4v91.5c0,0.8-0.6,1.4-1.4,1.4h-78c-0.8,0-1.4-0.6-1.4-1.4v-91.5
		C0.3,1911.1,1,1910.5,1.7,1910.5z"/>
	<line class="st4" x1="0.3" y1="1932.4" x2="81.1" y2="1932.4"/>
	<line class="st4" x1="0.3" y1="1986.3" x2="81.1" y2="1986.3"/>
	<rect x="28.4" y="1916.6" class="st1" width="24.6" height="9.5"/>
	<circle class="st1" cx="20.2" cy="1921.3" r="3.7"/>
	<circle class="st1" cx="8.7" cy="1921.3" r="3.7"/>
	<circle class="st1" cx="72.2" cy="1921.3" r="3.7"/>
	<circle class="st1" cx="60.8" cy="1921.3" r="3.7"/>
	<path class="st4" d="M14.7,1939.7h54.1c2.2,0,3.9,1.8,3.9,3.9v31.5c0,2.2-1.8,3.9-3.9,3.9H14.7c-2.2,0-3.9-1.8-3.9-3.9v-31.5
		C10.8,1941.4,12.5,1939.7,14.7,1939.7z"/>
</g>
<g class="st0">
	<path class="st3" d="M5,1758.2h73c2.1,0,3.8,1.7,3.8,3.8v139.8c0,2.1-1.7,3.9-3.8,3.9H5c-2.1,0-3.8-1.7-3.8-3.9v-139.8
		C1.1,1760,2.8,1758.2,5,1758.2z"/>
	<path class="st5" d="M4.1,1878.2c12-2.2,24.1-3.3,36.3-3.3c12.6,0,25.1,1.1,37.5,3.3"/>
	<line class="st6" x1="37.5" y1="1848.3" x2="37.5" y2="1786.9"/>
	<line class="st6" x1="45.4" y1="1848.3" x2="45.4" y2="1786.9"/>
	<ellipse class="st1" cx="11" cy="1766" rx="3.7" ry="1.7"/>
	<line class="st4" x1="0.1" y1="1868.9" x2="82.8" y2="1868.9"/>
	<line class="st4" x1="41.5" y1="1868.1" x2="41.5" y2="1757.3"/>
</g>
<g class="st0">
	<path d="M5.2,2209h73c2.1,0,3.8,1.7,3.8,3.8v86.5c0,2.1-1.7,3.9-3.8,3.9h-73c-2.1,0-3.8-1.7-3.8-3.9v-86.5
		C1.3,2210.7,3.1,2209,5.2,2209z"/>
	
		<ellipse transform="matrix(1.850899e-02 -0.9998 0.9998 1.850899e-02 -2225.075 2266.1116)" class="st1" cx="41.7" cy="2266.4" rx="27" ry="27"/>
	<circle class="st1" cx="41.7" cy="2220.8" r="4.9"/>
	<rect x="52.6" y="2216" class="st1" width="24.6" height="9.5"/>
	<circle cx="41.7" cy="2266.4" r="18.4"/>
	<path class="st2" d="M1.3,2233.9c13.1-2,26.4-3,39.7-3c13.7,0,27.4,1,41,3"/>
</g>
<g class="st0">
	<rect x="0.9" y="2108.7" width="80.7" height="84.3"/>
	<rect x="7.1" y="2115.7" class="st1" width="68.9" height="9.5"/>
	<line class="st4" x1="0.9" y1="2133.4" x2="81.6" y2="2133.4"/>
	<rect x="2.4" y="2193" width="77.8" height="10"/>
	<ellipse class="st1" cx="43.7" cy="2183.7" rx="3.7" ry="1.7"/>
</g>
<g class="st0">
	<path d="M93.4,2255.9h73c2.1,0,3.9,1.7,3.9,3.9v86.5c0,2.1-1.7,3.8-3.9,3.8h-73c-2.1,0-3.8-1.7-3.8-3.8v-86.5
		C89.6,2257.6,91.3,2255.9,93.4,2255.9z"/>
	
		<ellipse transform="matrix(3.327792e-02 -0.9994 0.9994 3.327792e-02 -2186.4036 2366.1245)" class="st1" cx="129.9" cy="2313.3" rx="27" ry="27"/>
	<circle class="st1" cx="129.9" cy="2267.6" r="4.9"/>
	<rect x="140.8" y="2262.9" class="st1" width="24.6" height="9.5"/>
	<circle cx="129.9" cy="2313.3" r="18.4"/>
	<rect x="95.8" y="2262.9" class="st1" width="24.6" height="9.5"/>
	<path class="st2" d="M89.6,2280.8c26.8-4,54-4,80.7,0"/>
</g>
<g class="st0">
	<path class="st3" d="M90.9,2156.9h77.9c0.8,0,1.4,0.6,1.4,1.4v91.5c0,0.8-0.6,1.4-1.4,1.4H90.9c-0.8,0-1.4-0.6-1.4-1.4v-91.5
		C89.6,2157.5,90.2,2156.9,90.9,2156.9z"/>
	<line class="st4" x1="89.6" y1="2178.8" x2="170.3" y2="2178.8"/>
	<line class="st4" x1="89.6" y1="2232.7" x2="170.3" y2="2232.7"/>
	<rect x="117.6" y="2163" class="st1" width="24.6" height="9.5"/>
	<circle class="st1" cx="109.4" cy="2167.8" r="3.7"/>
	<circle class="st1" cx="97.9" cy="2167.8" r="3.7"/>
	<circle class="st1" cx="161.5" cy="2167.8" r="3.7"/>
	<circle class="st1" cx="150" cy="2167.8" r="3.7"/>
	<path class="st4" d="M103.9,2186.1H158c2.2,0,3.9,1.8,3.9,3.9v31.5c0,2.2-1.8,3.9-3.9,3.9h-54.1c-2.2,0-3.9-1.8-3.9-3.9V2190
		C100,2187.8,101.8,2186.1,103.9,2186.1z"/>
</g>
<g class="st0">
	<path d="M94.1,1903.5h73c2.1,0,3.9,1.7,3.9,3.8v86.5c0,2.1-1.7,3.8-3.9,3.8h-73c-2.1,0-3.8-1.7-3.8-3.8v-86.5
		C90.3,1905.3,92,1903.5,94.1,1903.5z"/>
	
		<ellipse transform="matrix(7.088900e-02 -0.9975 0.9975 7.088900e-02 -1834.5985 1952.1924)" class="st1" cx="130.6" cy="1960.9" rx="27" ry="27"/>
	<circle class="st1" cx="130.6" cy="1915.3" r="4.9"/>
	<rect x="141.6" y="1910.5" class="st1" width="24.6" height="9.5"/>
	<circle cx="130.6" cy="1960.9" r="18.4"/>
	<path class="st2" d="M90.3,1928.4c26.8-4,54-4,80.7,0"/>
</g>
<g class="st0">
	<path class="st3" d="M94.2,2004.7h73c2.1,0,3.9,1.7,3.9,3.8v139.8c0,2.1-1.7,3.9-3.9,3.9h-73c-2.1,0-3.8-1.7-3.8-3.9v-139.8
		C90.3,2006.4,92,2004.7,94.2,2004.7z"/>
	<path class="st5" d="M93.3,2124.7c24.4-4.4,49.4-4.4,73.8,0"/>
	<line class="st6" x1="126.7" y1="2094.7" x2="126.7" y2="2033.3"/>
	<line class="st6" x1="134.6" y1="2094.7" x2="134.6" y2="2033.3"/>
	<ellipse class="st1" cx="100.2" cy="2012.4" rx="3.7" ry="1.7"/>
	<line class="st4" x1="89.3" y1="2115.3" x2="172" y2="2115.3"/>
	<line class="st4" x1="130.7" y1="2114.5" x2="130.7" y2="2003.8"/>
</g>
<g class="st0">
	<rect x="89.9" y="1803.2" width="80.7" height="84.3"/>
	<rect x="96.1" y="1810.2" class="st1" width="68.9" height="9.5"/>
	<line class="st4" x1="89.9" y1="1828" x2="170.6" y2="1828"/>
	<rect x="91.3" y="1887.5" width="77.8" height="10"/>
	<ellipse class="st1" cx="132.6" cy="1878.2" rx="3.7" ry="1.7"/>
</g>
<g class="st0">
	<path d="M545.9,2184h73c2.1,0,3.8,1.7,3.8,3.8v86.5c0,2.1-1.7,3.9-3.8,3.9h-73c-2.1,0-3.8-1.7-3.8-3.9v-86.5
		C542.1,2185.8,543.8,2184,545.9,2184z"/>
	<circle class="st1" cx="582.4" cy="2241.4" r="27"/>
	<circle class="st1" cx="582.4" cy="2195.8" r="4.9"/>
	<rect x="593.4" y="2191" class="st1" width="24.6" height="9.5"/>
	<circle cx="582.4" cy="2241.4" r="18.4"/>
	<rect x="548.3" y="2191" class="st1" width="24.6" height="9.5"/>
	<path class="st2" d="M542.1,2208.9c26.8-4,54-4,80.7,0"/>
</g>
<g class="st0">
	<path class="st3" d="M543.5,2085h78c0.8,0,1.4,0.6,1.4,1.4v91.5c0,0.8-0.6,1.4-1.4,1.4h-78c-0.8,0-1.4-0.6-1.4-1.4v-91.5
		C542.1,2085.7,542.7,2085,543.5,2085z"/>
	<line class="st4" x1="542.1" y1="2106.9" x2="622.8" y2="2106.9"/>
	<line class="st4" x1="542.1" y1="2160.8" x2="622.8" y2="2160.8"/>
	<rect x="570.1" y="2091.1" class="st1" width="24.6" height="9.5"/>
	<circle class="st1" cx="562" cy="2095.9" r="3.7"/>
	<circle class="st1" cx="550.5" cy="2095.9" r="3.7"/>
	<circle class="st1" cx="614" cy="2095.9" r="3.7"/>
	<circle class="st1" cx="602.5" cy="2095.9" r="3.7"/>
	<path class="st4" d="M556.4,2114.2h54.1c2.2,0,3.9,1.8,3.9,3.9v31.5c0,2.2-1.8,3.9-3.9,3.9h-54.1c-2.2,0-3.9-1.8-3.9-3.9v-31.5
		C552.5,2116,554.3,2114.2,556.4,2114.2z"/>
</g>
<g class="st0">
	<path d="M546.7,1831.7h73c2.1,0,3.8,1.7,3.8,3.8v86.5c0,2.1-1.7,3.8-3.8,3.8h-73c-2.1,0-3.8-1.7-3.8-3.8v-86.5
		C542.8,1833.4,544.5,1831.7,546.7,1831.7z"/>
	<circle class="st1" cx="583.2" cy="1889" r="27"/>
	<circle class="st1" cx="583.2" cy="1843.4" r="4.9"/>
	<rect x="594.1" y="1838.6" class="st1" width="24.6" height="9.5"/>
	<circle cx="583.2" cy="1889" r="18.4"/>
	<path class="st2" d="M542.8,1856.5c26.8-4,54-4,80.7,0"/>
</g>
<g class="st0">
	<path class="st3" d="M546.7,1932.8h73c2.1,0,3.8,1.7,3.8,3.8v139.8c0,2.1-1.7,3.9-3.8,3.9h-73c-2.1,0-3.8-1.7-3.8-3.9v-139.8
		C542.8,1934.5,544.6,1932.8,546.7,1932.8z"/>
	<path class="st5" d="M545.8,2052.8c24.4-4.4,49.4-4.4,73.8,0"/>
	<line class="st6" x1="579.3" y1="2022.9" x2="579.3" y2="1961.4"/>
	<line class="st6" x1="587.1" y1="2022.9" x2="587.1" y2="1961.4"/>
	<ellipse class="st1" cx="552.7" cy="1940.5" rx="3.7" ry="1.7"/>
	<line class="st4" x1="541.8" y1="2043.4" x2="624.5" y2="2043.4"/>
	<line class="st4" x1="583.2" y1="2042.6" x2="583.2" y2="1931.9"/>
</g>
<g class="st0">
	<rect x="542.4" y="1731.4" width="80.7" height="84.3"/>
	<rect x="548.6" y="1738.3" class="st1" width="68.9" height="9.5"/>
	<line class="st4" x1="542.4" y1="1756.1" x2="623.1" y2="1756.1"/>
	<rect x="543.8" y="1815.6" width="77.8" height="10"/>
	<ellipse class="st1" cx="585.2" cy="1806.4" rx="3.7" ry="1.7"/>
</g>
<g class="st0">
	<path d="M638.2,1772h73c2.1,0,3.8,1.7,3.8,3.8v86.5c0,2.1-1.7,3.8-3.8,3.8h-73c-2.1,0-3.8-1.7-3.8-3.8v-86.5
		C634.4,1773.7,636.1,1772,638.2,1772z"/>
	<circle class="st1" cx="674.7" cy="1829.3" r="27"/>
	<circle class="st1" cx="674.7" cy="1783.7" r="4.9"/>
	<rect x="685.7" y="1779" class="st1" width="24.6" height="9.5"/>
	<circle cx="674.7" cy="1829.3" r="18.4"/>
	<rect x="640.6" y="1779" class="st1" width="24.6" height="9.5"/>
	<path class="st2" d="M634.4,1796.8c26.8-4,54-4,80.7,0"/>
</g>
<g class="st0">
	<path class="st3" d="M635.8,1673h78c0.8,0,1.4,0.6,1.4,1.4v91.5c0,0.8-0.6,1.4-1.4,1.4h-78c-0.8,0-1.4-0.6-1.4-1.4v-91.5
		C634.4,1673.6,635,1673,635.8,1673z"/>
	<line class="st4" x1="634.4" y1="1694.9" x2="715.1" y2="1694.9"/>
	<line class="st4" x1="634.4" y1="1748.8" x2="715.1" y2="1748.8"/>
	<rect x="662.4" y="1679.1" class="st1" width="24.6" height="9.5"/>
	<circle class="st1" cx="654.3" cy="1683.8" r="3.7"/>
	<circle class="st1" cx="642.8" cy="1683.8" r="3.7"/>
	<circle class="st1" cx="706.3" cy="1683.8" r="3.7"/>
	<circle class="st1" cx="694.8" cy="1683.8" r="3.7"/>
	<path class="st4" d="M648.7,1702.2h54.1c2.2,0,3.9,1.8,3.9,3.9v31.5c0,2.2-1.8,3.9-3.9,3.9h-54.1c-2.2,0-3.9-1.8-3.9-3.9v-31.5
		C644.8,1703.9,646.6,1702.2,648.7,1702.2z"/>
</g>
<g class="st0">
	<path class="st3" d="M636.4,2224.9h78c0.8,0,1.4,0.6,1.4,1.4v91.5c0,0.8-0.6,1.4-1.4,1.4h-78c-0.8,0-1.4-0.6-1.4-1.4v-91.5
		C635.1,2225.5,635.7,2224.9,636.4,2224.9z"/>
	<line class="st4" x1="635.1" y1="2246.8" x2="715.8" y2="2246.8"/>
	<line class="st4" x1="635.1" y1="2300.7" x2="715.8" y2="2300.7"/>
	<rect x="663.1" y="2231" class="st1" width="24.6" height="9.5"/>
	<circle class="st1" cx="654.9" cy="2235.7" r="3.7"/>
	<circle class="st1" cx="643.5" cy="2235.7" r="3.7"/>
	<circle class="st1" cx="707" cy="2235.7" r="3.7"/>
	<circle class="st1" cx="695.5" cy="2235.7" r="3.7"/>
	<path class="st4" d="M649.4,2254.1h54.1c2.2,0,3.9,1.8,3.9,3.9v31.5c0,2.2-1.8,3.9-3.9,3.9h-54.1c-2.2,0-3.9-1.8-3.9-3.9V2258
		C645.5,2255.8,647.3,2254.1,649.4,2254.1z"/>
</g>
<g class="st0">
	<path d="M639.6,1971.5h73c2.1,0,3.8,1.7,3.8,3.8v86.5c0,2.1-1.7,3.8-3.8,3.8h-73c-2.1,0-3.8-1.7-3.8-3.8v-86.5
		C635.8,1973.2,637.5,1971.5,639.6,1971.5z"/>
	<circle class="st1" cx="676.1" cy="2028.9" r="27"/>
	<circle class="st1" cx="676.1" cy="1983.3" r="4.9"/>
	<rect x="687.1" y="1978.5" class="st1" width="24.6" height="9.5"/>
	<circle cx="676.1" cy="2028.9" r="18.4"/>
	<path class="st2" d="M635.8,1996.4c26.8-4,54-4,80.7,0"/>
</g>
<g class="st0">
	<path class="st3" d="M639.7,2072.6h73c2.1,0,3.8,1.7,3.8,3.8v139.8c0,2.1-1.7,3.9-3.8,3.9h-73c-2.1,0-3.8-1.7-3.8-3.9v-139.8
		C635.8,2074.4,637.5,2072.6,639.7,2072.6z"/>
	<path class="st5" d="M638.8,2192.6c24.4-4.4,49.4-4.4,73.8,0"/>
	<line class="st6" x1="672.3" y1="2162.7" x2="672.3" y2="2101.3"/>
	<line class="st6" x1="680.1" y1="2162.7" x2="680.1" y2="2101.3"/>
	<ellipse class="st1" cx="645.7" cy="2080.4" rx="3.7" ry="1.7"/>
	<line class="st4" x1="634.8" y1="2183.3" x2="717.5" y2="2183.3"/>
	<line class="st4" x1="676.2" y1="2182.5" x2="676.2" y2="2071.7"/>
</g>
<g class="st0">
	<rect x="635.4" y="1871.2" width="80.7" height="84.3"/>
	<rect x="641.6" y="1878.2" class="st1" width="68.9" height="9.5"/>
	<line class="st4" x1="635.4" y1="1895.9" x2="716.1" y2="1895.9"/>
	<rect x="636.8" y="1955.5" width="77.8" height="10"/>
	<ellipse class="st1" cx="678.1" cy="1946.2" rx="3.7" ry="1.7"/>
</g>
<g class="st0">
	<path d="M365.3,2172.1h73c2.1,0,3.9,1.7,3.9,3.9v86.5c0,2.1-1.7,3.8-3.9,3.8h-73c-2.1,0-3.9-1.7-3.9-3.8V2176
		C361.5,2173.9,363.2,2172.1,365.3,2172.1z"/>
	<circle class="st1" cx="401.8" cy="2229.5" r="27"/>
	<circle class="st1" cx="401.8" cy="2183.9" r="4.9"/>
	<rect x="412.8" y="2179.1" class="st1" width="24.6" height="9.5"/>
	<circle cx="401.8" cy="2229.5" r="18.4"/>
	<rect x="367.7" y="2179.1" class="st1" width="24.6" height="9.5"/>
	<path class="st2" d="M361.5,2197c26.8-4,54-4,80.7,0"/>
</g>
<g class="st0">
	<path class="st3" d="M362.9,2073.1h77.9c0.8,0,1.4,0.6,1.4,1.4v91.5c0,0.8-0.6,1.4-1.4,1.4h-77.9c-0.8,0-1.4-0.6-1.4-1.4v-91.5
		C361.5,2073.8,362.1,2073.1,362.9,2073.1z"/>
	<line class="st4" x1="361.5" y1="2095" x2="442.2" y2="2095"/>
	<line class="st4" x1="361.5" y1="2148.9" x2="442.2" y2="2148.9"/>
	<rect x="389.6" y="2079.2" class="st1" width="24.6" height="9.5"/>
	<circle class="st1" cx="381.4" cy="2084" r="3.7"/>
	<circle class="st1" cx="369.9" cy="2084" r="3.7"/>
	<circle class="st1" cx="433.4" cy="2084" r="3.7"/>
	<circle class="st1" cx="421.9" cy="2084" r="3.7"/>
	<path class="st4" d="M375.9,2102.3h54.1c2.2,0,3.9,1.8,3.9,3.9v31.5c0,2.2-1.8,3.9-3.9,3.9h-54.1c-2.2,0-3.9-1.8-3.9-3.9v-31.5
		C371.9,2104.1,373.7,2102.3,375.9,2102.3z"/>
</g>
<g class="st0">
	<path d="M366.1,1819.8h73c2.1,0,3.9,1.7,3.9,3.9v86.5c0,2.1-1.7,3.9-3.9,3.9h-73c-2.1,0-3.9-1.7-3.9-3.9v-86.5
		C362.2,1821.5,363.9,1819.8,366.1,1819.8z"/>
	<circle class="st1" cx="402.6" cy="1877.1" r="27"/>
	<circle class="st1" cx="402.6" cy="1831.5" r="4.9"/>
	<rect x="413.5" y="1826.7" class="st1" width="24.6" height="9.5"/>
	<circle cx="402.6" cy="1877.1" r="18.4"/>
	<path class="st2" d="M362.2,1844.6c26.8-4,54-4,80.7,0"/>
</g>
<g class="st0">
	<path class="st3" d="M366.1,1920.9h73c2.1,0,3.9,1.7,3.9,3.9v139.8c0,2.1-1.7,3.8-3.9,3.8h-73c-2.1,0-3.9-1.7-3.9-3.8v-139.8
		C362.2,1922.6,364,1920.9,366.1,1920.9z"/>
	<path class="st5" d="M365.2,2040.9c24.4-4.4,49.4-4.4,73.8,0"/>
	<line class="st6" x1="398.7" y1="2011" x2="398.7" y2="1949.5"/>
	<line class="st6" x1="406.5" y1="2011" x2="406.5" y2="1949.5"/>
	<ellipse class="st1" cx="372.1" cy="1928.6" rx="3.7" ry="1.7"/>
	<line class="st4" x1="361.2" y1="2031.5" x2="443.9" y2="2031.5"/>
	<line class="st4" x1="402.6" y1="2030.7" x2="402.6" y2="1920"/>
</g>
<g class="st0">
	<rect x="361.8" y="1719.4" width="80.7" height="84.3"/>
	<rect x="368" y="1726.4" class="st1" width="68.9" height="9.5"/>
	<line class="st4" x1="361.8" y1="1744.2" x2="442.5" y2="1744.2"/>
	<rect x="363.3" y="1803.7" width="77.8" height="10"/>
	<ellipse class="st1" cx="404.6" cy="1794.5" rx="3.7" ry="1.7"/>
</g>
<g class="st0">
	<path d="M454.5,2244.1h73c2.1,0,3.8,1.7,3.8,3.9v86.5c0,2.1-1.7,3.8-3.8,3.8h-73c-2.1,0-3.9-1.7-3.9-3.8V2248
		C450.7,2245.9,452.4,2244.1,454.5,2244.1z"/>
	<ellipse transform="matrix(0.9239 -0.3827 0.3827 0.9239 -843.3632 363.1064)" class="st1" cx="491" cy="2301.5" rx="27" ry="27"/>
	<circle class="st1" cx="491" cy="2255.9" r="4.9"/>
	<rect x="502" y="2251.1" class="st1" width="24.6" height="9.5"/>
	<circle cx="491" cy="2301.5" r="18.4"/>
	<rect x="456.9" y="2251.1" class="st1" width="24.6" height="9.5"/>
	<path class="st2" d="M450.7,2269c26.8-4,54-4,80.7,0"/>
</g>
<g class="st0">
	<path class="st3" d="M452.1,2145.1h78c0.8,0,1.4,0.6,1.4,1.4v91.5c0,0.8-0.6,1.4-1.4,1.4h-78c-0.8,0-1.4-0.6-1.4-1.4v-91.5
		C450.7,2145.8,451.3,2145.1,452.1,2145.1z"/>
	<line class="st4" x1="450.7" y1="2167" x2="531.4" y2="2167"/>
	<line class="st4" x1="450.7" y1="2220.9" x2="531.4" y2="2220.9"/>
	<rect x="478.8" y="2151.2" class="st1" width="24.6" height="9.5"/>
	<circle class="st1" cx="470.6" cy="2156" r="3.7"/>
	<circle class="st1" cx="459.1" cy="2156" r="3.7"/>
	<circle class="st1" cx="522.6" cy="2156" r="3.7"/>
	
		<ellipse transform="matrix(0.1602 -0.9871 0.9871 0.1602 -1698.8861 2315.157)" class="st1" cx="511.1" cy="2156" rx="3.7" ry="3.7"/>
	<path class="st4" d="M465.1,2174.3h54.1c2.2,0,3.9,1.8,3.9,3.9v31.5c0,2.2-1.8,3.9-3.9,3.9h-54.1c-2.2,0-3.9-1.8-3.9-3.9v-31.5
		C461.1,2176.1,462.9,2174.3,465.1,2174.3z"/>
</g>
<g class="st0">
	<path d="M455.3,1891.8h73c2.1,0,3.8,1.7,3.8,3.9v86.5c0,2.1-1.7,3.9-3.8,3.9h-73c-2.1,0-3.9-1.7-3.9-3.9v-86.5
		C451.4,1893.5,453.1,1891.8,455.3,1891.8z"/>
	
		<ellipse transform="matrix(0.1602 -0.9871 0.9871 0.1602 -1510.9379 2122.3242)" class="st1" cx="491.8" cy="1949.1" rx="27" ry="27"/>
	<circle class="st1" cx="491.8" cy="1903.5" r="4.9"/>
	<rect x="502.7" y="1898.7" class="st1" width="24.6" height="9.5"/>
	<circle cx="491.8" cy="1949.1" r="18.4"/>
	<path class="st2" d="M451.4,1916.6c26.8-4,54-4,80.7,0"/>
</g>
<g class="st0">
	<path class="st3" d="M455.3,1992.9h73c2.1,0,3.8,1.7,3.8,3.9v139.8c0,2.1-1.7,3.8-3.8,3.8h-73c-2.1,0-3.9-1.7-3.9-3.8v-139.8
		C451.4,1994.6,453.2,1992.9,455.3,1992.9z"/>
	<path class="st5" d="M454.4,2112.9c24.4-4.4,49.4-4.4,73.8,0"/>
	<line class="st6" x1="487.9" y1="2083" x2="487.9" y2="2021.5"/>
	<line class="st6" x1="495.7" y1="2083" x2="495.7" y2="2021.5"/>
	<ellipse class="st1" cx="461.4" cy="2000.6" rx="3.7" ry="1.7"/>
	<line class="st4" x1="450.4" y1="2103.5" x2="533.1" y2="2103.5"/>
	<line class="st4" x1="491.8" y1="2102.7" x2="491.8" y2="1992"/>
</g>
<g class="st0">
	<rect x="451" y="1791.4" width="80.7" height="84.3"/>
	<rect x="457.2" y="1798.4" class="st1" width="68.9" height="9.5"/>
	<line class="st4" x1="451" y1="1816.2" x2="531.7" y2="1816.2"/>
	<rect x="452.5" y="1875.7" width="77.8" height="10"/>
	<ellipse class="st1" cx="493.8" cy="1866.5" rx="3.7" ry="1.7"/>
</g>
</svg>
